<?xml version="1.0" encoding="UTF-8" standalone="no"?>
<!-- Created with Inkscape (http://www.inkscape.org/) -->

<svg
   xmlns:dc="http://purl.org/dc/elements/1.1/"
   xmlns:cc="http://creativecommons.org/ns#"
   xmlns:rdf="http://www.w3.org/1999/02/22-rdf-syntax-ns#"
   xmlns:svg="http://www.w3.org/2000/svg"
   xmlns="http://www.w3.org/2000/svg"
   xmlns:sodipodi="http://sodipodi.sourceforge.net/DTD/sodipodi-0.dtd"
   xmlns:inkscape="http://www.inkscape.org/namespaces/inkscape"
   id="svg2"
   version="1.1"
   inkscape:version="0.47 r22583"
   width="70"
   height="50"
   sodipodi:docname="ambulance.svg">
  <metadata
     id="metadata8">
    <rdf:RDF>
      <cc:Work
         rdf:about="">
        <dc:format>image/svg+xml</dc:format>
        <dc:type
           rdf:resource="http://purl.org/dc/dcmitype/StillImage" />
        <dc:title></dc:title>
      </cc:Work>
    </rdf:RDF>
  </metadata>
  <defs
     id="defs6">
    <inkscape:perspective
       sodipodi:type="inkscape:persp3d"
       inkscape:vp_x="0 : 0.5 : 1"
       inkscape:vp_y="0 : 1000 : 0"
       inkscape:vp_z="1 : 0.5 : 1"
       inkscape:persp3d-origin="0.5 : 0.33333333 : 1"
       id="perspective10" />
  </defs>
  <sodipodi:namedview
     pagecolor="#ffffff"
     bordercolor="#666666"
     borderopacity="1"
     objecttolerance="10"
     gridtolerance="10"
     guidetolerance="10"
     inkscape:pageopacity="0"
     inkscape:pageshadow="2"
     inkscape:window-width="1366"
     inkscape:window-height="694"
     id="namedview4"
     showgrid="false"
     inkscape:zoom="4.72"
     inkscape:cx="35"
     inkscape:cy="25"
     inkscape:window-x="0"
     inkscape:window-y="25"
     inkscape:window-maximized="1"
     inkscape:current-layer="svg2" />
  <path
     style="fill:#000000"
     d="m 15.654988,42.171264 c -2.171194,-2.399142 -2.10048,-5.458124 0.173753,-7.516276 2.546534,-2.304582 5.771196,-2.064245 7.614555,0.567518 2.057373,2.937312 1.751764,4.582434 -0.65516,6.989358 -2.491152,2.491152 -4.976755,2.342183 -7.133148,-0.0406 z M 21.819551,38.25 C 22.079805,36.417519 21.662286,36 19.569551,36 17.476816,36 17,36.476816 17,38.569551 c 0,2.092735 0.417519,2.510254 2.25,2.25 1.445957,-0.205359 2.364192,-1.123594 2.569551,-2.569551 z m 23.835437,3.921259 C 42.32331,38.489797 44.633698,33 49.514725,33 51.871928,33 55.403347,36.111182 55,38.722506 54.443647,42.324414 51.692259,44.377905 49.154988,44 c -1.301959,-0.193916 -2.589757,-0.822933 -3.5,-1.828741 z M 51.5,38.513695 c 0,-2.28807 -3.357136,-3.362888 -4.537653,-1.452772 -1.236833,2.001239 0.09975,4.072281 2.414931,3.741949 C 50.726801,40.610321 51.5,39.776491 51.5,38.513695 z M 7.003486,28.267454 C 7.1824016,22.592088 7.7055743,19.050698 8.6934959,16.75 L 10.303749,14.059322 21.544886,13 c 9.069631,0 11.236271,0.506513 11.81674,-0.652542 0,0 0.404431,-3.087747 1.576271,-3.1474298 1.24143,-0.063227 2,3.1474298 2,3.1474298 C 37.41182,13.093278 38.981274,13 40.257328,13 c 1.74153,0 3.151341,1.371545 5.653446,5.5 l 3.333349,5.5 6.877939,0 6.242344,-1e-6 0.861108,6.097459 c 0.472322,3.003705 0.663447,6.886774 -0.654555,7.711864 -1.77705,1.112462 -0.60056,1.402542 -3.806547,1.402542 -2.896828,0 -1.900622,-0.723742 -2.96896,-2.952755 -2.905983,-6.063142 -10.308864,-6.262264 -12.760606,-0.343234 -1.25974,3.04128 1.588684,3.295989 -5.504852,3.295989 L 27.370425,39 25.745606,35.59272 c -2.887037,-6.05418 -10.745742,-5.759377 -12.92246,0.484759 -0.780547,2.239078 -1.639018,2.922639 -3.6709711,2.923026 L 7.559322,36.458637 6.8576752,32.892707 7.003486,28.267454 z M 60,32 60,27 54.185476,27 48.370952,27 44.404569,21.25 40.438186,15.5 26.570789,15.59258 C 9.9396741,15.7036 10,15.662705 10,26.825988 l 0,7.443729 2.012186,-2.55808 c 1.106702,-1.406943 3.335609,-2.848752 4.953127,-3.204018 3.779562,-0.830131 9.595137,2.190997 11.086555,5.464302 0.988139,2.16873 1.53868,1.816215 6.391509,1.816215 4.667664,0 5.241356,0.299876 6.261053,-1.614407 1.807409,-3.393059 4.41483,-5.106773 8.410711,-5.141926 3.961917,-0.03485 8.372996,2.7801 9.393138,5.994282 C 59.532669,38.253651 60,37.305628 60,32 z M 31.847457,27.305085 C 31.847457,25.971752 30.333333,27 29,27 c -1.466667,0 -1.364407,-0.454803 -1.364407,-2.288136 0,-1.833333 -0.459322,-2.07627 0.940678,-2.07627 1.4,0 3.483051,0.816383 3.483051,-0.51695 C 32.059322,20.785311 31.666667,18 33,18 c 1.333333,0 2,0.666667 2,2 0,1.333333 -1.028248,3.059322 0.305085,3.059322 1.466667,0 3.483051,-0.816384 3.483051,1.016949 0,1.833333 0.314124,2.500001 -1.152543,2.500001 -1.333333,0 -3.271186,-0.60452 -3.271186,0.728813 0,1.333333 -0.03107,3.906779 -1.364407,3.906779 -1.333333,0 -1.152543,-2.573446 -1.152543,-3.906779 z"
     id="path2818"
     sodipodi:nodetypes="csssccsssccsssccsscccccsasscccccsssscccsccccccccccccccssssssccsszssssssssc" />
</svg>
