<?xml version="1.0" encoding="UTF-8" standalone="no"?>
<!-- Created with Inkscape (http://www.inkscape.org/) -->

<svg
   xmlns:dc="http://purl.org/dc/elements/1.1/"
   xmlns:cc="http://creativecommons.org/ns#"
   xmlns:rdf="http://www.w3.org/1999/02/22-rdf-syntax-ns#"
   xmlns:svg="http://www.w3.org/2000/svg"
   xmlns="http://www.w3.org/2000/svg"
   xmlns:sodipodi="http://sodipodi.sourceforge.net/DTD/sodipodi-0.dtd"
   xmlns:inkscape="http://www.inkscape.org/namespaces/inkscape"
   id="svg2"
   version="1.1"
   inkscape:version="0.47 r22583"
   width="70"
   height="70"
   sodipodi:docname="grottes.svg">
  <metadata
     id="metadata8">
    <rdf:RDF>
      <cc:Work
         rdf:about="">
        <dc:format>image/svg+xml</dc:format>
        <dc:type
           rdf:resource="http://purl.org/dc/dcmitype/StillImage" />
        <dc:title></dc:title>
      </cc:Work>
    </rdf:RDF>
  </metadata>
  <defs
     id="defs6">
    <inkscape:perspective
       sodipodi:type="inkscape:persp3d"
       inkscape:vp_x="0 : 0.5 : 1"
       inkscape:vp_y="0 : 1000 : 0"
       inkscape:vp_z="1 : 0.5 : 1"
       inkscape:persp3d-origin="0.5 : 0.33333333 : 1"
       id="perspective10" />
  </defs>
  <sodipodi:namedview
     pagecolor="#ffffff"
     bordercolor="#666666"
     borderopacity="1"
     objecttolerance="10"
     gridtolerance="10"
     guidetolerance="10"
     inkscape:pageopacity="0"
     inkscape:pageshadow="2"
     inkscape:window-width="1366"
     inkscape:window-height="694"
     id="namedview4"
     showgrid="false"
     inkscape:zoom="3.3714286"
     inkscape:cx="35"
     inkscape:cy="35"
     inkscape:window-x="0"
     inkscape:window-y="25"
     inkscape:window-maximized="1"
     inkscape:current-layer="svg2" />
  <rect
     style="fill:none;stroke:#000000;stroke-opacity:1"
     id="rect2841"
     width="70.296608"
     height="70.593216"
     x="0.29661018"
     y="0.29661018"
     ry="2.6694915"
     rx="2.9661016" />
  <path
     style="fill:#000000"
     d="M 18,63.422805 C 9.2599503,61.616071 8.9407513,61.395097 6.6901316,55.593222 4.8735726,50.910314 4.5089086,47.563883 4.2355106,33.067771 3.8548816,12.886102 4.7885166,9.0205977 10.244018,8.1909157 15.449221,7.3992987 35.038834,6.1875877 40.5,6.3194387 c 2.75,0.06639 8.682327,0.201862 13.182949,0.30104 l 8.182949,0.180323 1.488247,3.7194953 c 1.003083,2.506953 1.320244,5.651588 0.972896,9.646211 -0.283444,3.259693 0.162193,11.776714 0.990304,18.926714 1.878291,16.217369 1.332323,20.145573 -3.227007,23.218105 -3.23495,2.180032 -4.194178,2.276534 -21.488221,2.161804 C 30.645953,64.407081 20.475,63.934434 18,63.422805 z m 43.100399,-8.01718 c 1.186976,-2.217885 0.650139,-33.638288 -0.692628,-40.538705 -0.547756,-2.814889 -0.873829,-3.09464 -2.557069,-2.193796 -1.061091,0.567879 -2.699081,0.955395 -3.639979,0.861148 -0.940898,-0.09425 -2.200991,-0.119539 -2.800208,-0.0562 -1.342861,0.141935 -3.376204,4.437688 -3.508478,7.412207 -0.05388,1.211617 -0.84138,-0.722057 -1.75,-4.297057 C 44.671272,10.767096 44.240817,10.093221 42,10.093221 c -2.167046,0 -2.541335,0.49943 -2.810365,3.750001 -0.356428,4.306553 -2.181926,5.134463 -2.204948,1 -0.03794,-6.8134553 -4.675899,-6.7425863 -6.411052,0.09796 -1.091636,4.303587 -2.567144,4.817681 -2.588948,0.902038 -0.0084,-1.5125 -0.458422,-3.425 -1,-4.250001 -1.679627,-2.5586213 -2.952256,0.762911 -2.969374,7.750001 -0.0206,8.409423 -1.847364,7.997921 -2.219623,-0.5 L 21.5,12.093222 18.310168,11.784351 c -2.529311,-0.244914 -3.768992,0.341138 -5.986757,2.830201 -3.4939197,3.921329 -6.5732704,13.302239 -5.9016274,17.97867 0.276474,1.925 0.526566,4.85 0.555761,6.5 0.0409,2.311465 0.275564,2.655733 1.022455,1.5 0.533156,-0.825 0.9762657,-2.539058 0.9846877,-3.809017 0.02508,-3.782419 1.5788577,-1.651403 1.8146377,2.488793 0.252225,4.428957 3.091381,11.505806 4.313086,10.75075 0.458281,-0.283233 1.364791,-2.40847 2.014466,-4.722748 l 1.181226,-4.207778 1.232173,8.302891 c 0.677696,4.566591 1.544309,8.616591 1.925808,9 0.3815,0.38341 7.970198,0.922109 16.863776,1.197109 17.327896,0.535799 20.560849,-0.05875 22.770539,-4.187597 z M 34,57.619656 c 0,-0.535461 1.575,-4.20984 3.5,-8.165288 4.191239,-8.612064 4.576122,-11.220738 1.185549,-8.03546 C 36.521513,43.451914 34,44.314951 34,43.022628 c 0,-1.510848 8.517468,-10.429406 9.96037,-10.429406 2.372467,0 8.03963,6.201464 8.03963,8.797607 0,2.750456 -1.586739,2.890709 -2.289749,0.202393 C 49.088889,39.217131 47,38.903156 47,41.185852 c 0,0.875947 1.187714,4.938233 2.639364,9.027303 1.451649,4.089071 2.371057,7.702979 2.043128,8.030909 -1.486951,1.48695 -3.52641,-0.957737 -5.643999,-6.765425 l -2.299694,-6.307127 -3.383189,6.710855 c -1.892163,3.753275 -4.038185,6.710855 -4.869399,6.710855 C 34.668795,58.593222 34,58.155117 34,57.619656 z m 5.66643,-27.453321 c -0.725679,-1.891088 1.52127,-3.693176 3.262826,-2.616835 1.655806,1.023344 0.691608,4.043722 -1.290882,4.043722 -0.783418,0 -1.670793,-0.642099 -1.971944,-1.426887 z"
     id="path2818" />
</svg>
