<?xml version="1.0" encoding="UTF-8" standalone="no"?>
<!-- Created with Inkscape (http://www.inkscape.org/) -->

<svg
   xmlns:dc="http://purl.org/dc/elements/1.1/"
   xmlns:cc="http://creativecommons.org/ns#"
   xmlns:rdf="http://www.w3.org/1999/02/22-rdf-syntax-ns#"
   xmlns:svg="http://www.w3.org/2000/svg"
   xmlns="http://www.w3.org/2000/svg"
   xmlns:sodipodi="http://sodipodi.sourceforge.net/DTD/sodipodi-0.dtd"
   xmlns:inkscape="http://www.inkscape.org/namespaces/inkscape"
   id="svg2"
   version="1.1"
   inkscape:version="0.47 r22583"
   width="70"
   height="70"
   sodipodi:docname="mare.png">
  <metadata
     id="metadata8">
    <rdf:RDF>
      <cc:Work
         rdf:about="">
        <dc:format>image/svg+xml</dc:format>
        <dc:type
           rdf:resource="http://purl.org/dc/dcmitype/StillImage" />
        <dc:title></dc:title>
      </cc:Work>
    </rdf:RDF>
  </metadata>
  <defs
     id="defs6">
    <inkscape:perspective
       sodipodi:type="inkscape:persp3d"
       inkscape:vp_x="0 : 0.5 : 1"
       inkscape:vp_y="0 : 1000 : 0"
       inkscape:vp_z="1 : 0.5 : 1"
       inkscape:persp3d-origin="0.5 : 0.33333333 : 1"
       id="perspective10" />
  </defs>
  <sodipodi:namedview
     pagecolor="#ffffff"
     bordercolor="#666666"
     borderopacity="1"
     objecttolerance="10"
     gridtolerance="10"
     guidetolerance="10"
     inkscape:pageopacity="0"
     inkscape:pageshadow="2"
     inkscape:window-width="1366"
     inkscape:window-height="694"
     id="namedview4"
     showgrid="false"
     inkscape:zoom="3.3714286"
     inkscape:cx="35"
     inkscape:cy="35"
     inkscape:window-x="0"
     inkscape:window-y="25"
     inkscape:window-maximized="1"
     inkscape:current-layer="svg2" />
  <g
     id="g2818"
     transform="translate(-0.88982729,-2.6694916)">
    <path
       style="fill:#fdfdfe"
       d="M 10.639831,59.186588 C 9.1273305,58.605433 7.8532718,57.379943 7.808589,56.463277 7.7639061,55.54661 7.6365464,53.55911 7.5255673,52.04661 c -0.2256783,-3.075701 0.7044884,-3.342116 4.3642637,-1.25 1.375,0.786021 3.4,1.409549 4.5,1.385617 1.346976,-0.02931 1.510232,-0.203149 0.5,-0.532428 -4.668104,-1.521543 -8.9475367,-3.774087 -9.397425,-4.946477 -0.8344123,-2.174444 1.117606,-2.602772 4.318397,-0.947579 3.713676,1.920416 5.108232,1.927942 8.714721,0.04703 3.72172,-1.941012 6.741187,-1.895685 11.086767,0.166427 3.006369,1.426616 3.984491,1.48333 6.651129,0.385652 5.469902,-2.251595 8.603216,-2.372448 12.771933,-0.492619 3.451517,1.556418 4.463254,1.632045 7.185796,0.537136 5.747163,-2.311305 6.668682,-2.420408 6.668682,-0.789544 0,0.850563 -2.046545,2.568572 -4.547877,3.817798 -4.132255,2.063748 -4.840513,2.144983 -7.75,0.888902 -4.106965,-1.773054 -10.312331,-1.7659 -14.448374,0.01666 -2.875905,1.239461 -3.578011,1.203097 -6.154292,-0.31875 -3.620976,-2.138963 -9.096189,-2.215353 -11.658327,-0.162656 -1.846045,1.478988 -1.825338,1.498772 0.42272,0.403886 2.637947,-1.284776 7.03578,-0.873449 11.804832,1.1041 2.751829,1.141081 3.697151,1.075629 7.185796,-0.497531 4.201387,-1.894562 7.285593,-1.761464 12.947064,0.558724 2.899564,1.188301 3.670399,1.141346 6.33104,-0.385652 3.586888,-2.058595 5.867418,-2.235171 5.867418,-0.454304 0,2.00741 -5.429454,4.715608 -9.453952,4.715608 -2.004952,0 -5.035396,-0.718812 -6.73432,-1.597359 -2.581378,-1.334883 -3.518053,-1.389396 -5.70034,-0.331751 -1.436263,0.696084 -4.636388,1.57977 -7.111388,1.963746 -4.483212,0.695534 -4.486136,0.698637 -0.783927,0.831751 2.04384,0.07349 5.234117,-0.590291 7.089503,-1.475063 3.099892,-1.478236 3.625675,-1.478236 6.484267,0 3.952378,2.043854 10.112265,2.065971 12.995237,0.04666 2.040699,-1.429361 2.28571,-1.41708 2.884986,0.144608 1.547987,4.03399 -8.533781,6.656109 -15.253803,3.967289 -3.639252,-1.45614 -4.377882,-1.463862 -7.689014,-0.08038 -4.719154,1.971783 -8.073518,1.934549 -12.441316,-0.138107 -2.811125,-1.333966 -3.898708,-1.429803 -5.422991,-0.477873 -2.733155,1.706884 -9.894869,2.272951 -13.112942,1.036457 z m 5.25,-3.870205 c -2.475,-0.39215 -5.4,-1.038106 -6.5000005,-1.435457 -1.2804182,-0.462523 -1.1005227,-0.170668 0.5,0.811179 1.3750005,0.843499 4.3000005,1.489454 6.5000005,1.435457 l 4,-0.09818 -4.5,-0.713001 z m 12.060525,-1.214047 c 2.697228,1.684447 3.833284,1.42853 1.498345,-0.337529 -2.480158,-1.875898 -4.673623,-1.861089 -7.11774,0.04805 -1.792071,1.399818 -1.724268,1.423294 0.882964,0.305725 2.19223,-0.939681 3.251961,-0.943317 4.736431,-0.01625 z"
       id="path2838" />
    <path
       style="fill:#fafcfc"
       d="M 10.639831,59.134329 C 8.8766636,58.490366 7.8898305,57.403758 7.8898305,56.106288 c 0,-1.556657 0.4038475,-1.844328 1.75,-1.246571 0.9625005,0.427397 3.5500005,0.863079 5.7500005,0.968183 2.2,0.105104 2.65,0.0124 1,-0.206018 -5.123242,-0.678175 -8.5000005,-2.444654 -8.5000005,-4.446592 0,-2.224893 0.6609321,-2.287464 4.0000005,-0.37868 1.375,0.786021 3.4,1.409549 4.5,1.385617 1.346976,-0.02931 1.510232,-0.203149 0.5,-0.532428 -5.732491,-1.868474 -9.0000005,-3.84974 -9.0000005,-5.457181 0,-1.706707 0.2275532,-1.715906 4.3795985,-0.17705 4.05892,1.504342 4.637449,1.500836 7.90113,-0.04788 4.437878,-2.105912 7.00138,-2.105573 11.441732,0.0015 2.995229,1.42133 3.994371,1.481218 6.651129,0.398669 5.528639,-2.252756 7.470013,-2.328358 12.582351,-0.489987 4.737926,1.703735 5.210349,1.709857 8.563244,0.110973 4.331848,-2.065704 5.480816,-2.120712 5.480816,-0.262387 0,0.786416 -2.046545,2.451941 -4.547877,3.701167 -4.132255,2.063748 -4.840513,2.144983 -7.75,0.888902 -4.106965,-1.773054 -10.312331,-1.7659 -14.448374,0.01666 -2.875905,1.239461 -3.578011,1.203097 -6.154292,-0.31875 -3.620976,-2.138963 -9.096189,-2.215353 -11.658327,-0.162656 -1.846045,1.478988 -1.825338,1.498772 0.42272,0.403886 2.637947,-1.284776 7.03578,-0.873449 11.804832,1.1041 2.751829,1.141081 3.697151,1.075629 7.185796,-0.497531 4.193563,-1.891033 7.289532,-1.760847 12.904437,0.542634 2.867652,1.176437 3.667833,1.116734 6.664875,-0.49728 5.33565,-2.873437 7.832608,-0.375077 2.671918,2.673417 -3.644393,2.152796 -9.021096,2.195698 -13.401284,0.106932 -3.099892,-1.478236 -3.625675,-1.478236 -6.484267,0 -3.853503,1.992723 -10.068378,2.030487 -12.651287,0.07687 -2.480158,-1.875898 -4.673623,-1.861089 -7.11774,0.04805 -1.794322,1.401576 -1.729165,1.425437 0.861522,0.315495 2.32886,-0.997766 3.284727,-0.915988 5.654292,0.483749 3.589621,2.120441 9.224043,2.159393 13.223074,0.09141 2.837647,-1.467404 3.379229,-1.458472 6.864602,0.113212 3.700679,1.668773 8.516529,1.66061 13.70538,-0.02323 1.692634,-0.549279 2.25,-0.338397 2.25,0.851297 0,3.662528 -9.204079,5.609399 -15.375913,3.252354 -3.874812,-1.479804 -4.641169,-1.491349 -7.924744,-0.119383 -4.658376,1.946394 -8.04969,1.920959 -12.292084,-0.09219 -3.121769,-1.481377 -3.719041,-1.481377 -7.421365,0 -4.521109,1.808995 -7.216795,1.916659 -11.235894,0.448758 z"
       id="path2836" />
    <path
       style="fill:#f8f9f9"
       d="M 10.639831,59.134329 C 8.8766636,58.490366 7.8898305,57.403758 7.8898305,56.106288 c 0,-1.553512 0.4065671,-1.845038 1.75,-1.254826 3.9472435,1.734146 9.6529605,1.682947 12.9945235,-0.116603 3.167017,-1.705551 3.521048,-1.712587 6.211252,-0.123445 3.590688,2.121072 9.224771,2.160313 13.224243,0.0921 2.837647,-1.467404 3.379229,-1.458472 6.864602,0.113212 3.700679,1.668773 8.516529,1.66061 13.70538,-0.02323 1.363921,-0.442608 2.25,-0.318536 2.25,0.315052 0,3.963379 -9.562086,6.233525 -15.610851,3.70619 -3.40849,-1.424158 -4.154814,-1.428931 -7.604516,-0.04863 -4.886998,1.955389 -8.13148,1.93428 -12.377374,-0.08053 -3.121769,-1.481377 -3.719041,-1.481377 -7.421365,0 -4.521109,1.808988 -7.216795,1.916652 -11.235894,0.448751 z m -0.5,-5.058214 C 7.3985631,52.754052 6.9205814,48.678317 9.6398305,49.812632 c 7.0152825,2.926372 7.1950455,2.947656 10.1505435,1.2018 3.677581,-2.1724 7.069995,-2.176381 11.605357,-0.01362 3.087544,1.472347 4.010499,1.524815 6.783927,0.385652 5.561611,-2.284386 8.671178,-2.41119 12.855695,-0.524236 4.067726,1.834289 4.22717,1.819218 11.104478,-1.049599 2.615737,-1.091135 2.240588,2.026949 -0.472506,3.927274 -2.807168,1.966217 -9.787597,2.016298 -12.336364,0.08851 -1.067622,-0.807508 -2.84113,-1.468196 -3.94113,-1.468196 -1.1,0 -2.873508,0.660688 -3.94113,1.468196 -2.578947,1.950618 -7.672121,1.858701 -12.024943,-0.217015 -3.313888,-1.580283 -3.753966,-1.580283 -7.067854,0 -3.976799,1.896403 -8.862159,2.082249 -12.216073,0.464717 z m 1,-4.524886 c -1.83406,-0.912782 -3.2500005,-2.388916 -3.2500005,-3.388163 0,-1.671803 0.2445892,-1.68004 4.3795985,-0.147498 4.05892,1.504342 4.637449,1.500836 7.90113,-0.04788 4.532479,-2.150803 7.431874,-2.110097 11.671925,0.163868 3.34628,1.794629 3.528419,1.78975 8.290211,-0.222049 4.757736,-2.010085 4.975803,-2.016072 9.562948,-0.26253 5.835395,2.230714 5.881105,2.231812 10.444188,0.250809 3.531516,-1.533162 3.748567,-1.525273 3.725396,0.135406 -0.02571,1.843017 -5.740435,5.263418 -8.793991,5.263418 -0.955016,0 -2.763851,-0.71966 -4.019633,-1.599244 -2.553186,-1.788321 -7.622219,-1.520429 -12.908023,0.682172 -2.844768,1.185419 -3.605904,1.140264 -6.154292,-0.365106 -3.506823,-2.071531 -8.693394,-2.164903 -12.099457,-0.217822 -3.165046,1.809304 -4.708474,1.766021 -8.75,-0.245381 z"
       id="path2834" />
    <path
       style="fill:#f3f4f5"
       d="M 10.639831,59.134329 C 8.8766636,58.490366 7.8898305,57.403758 7.8898305,56.106288 c 0,-1.553512 0.4065671,-1.845038 1.75,-1.254826 3.8538415,1.693112 9.6522685,1.68332 12.8181985,-0.02165 2.932475,-1.579241 3.423371,-1.588926 6.2573,-0.123445 3.928756,2.031639 9.422517,2.030466 13.35452,-0.0029 2.843689,-1.470529 3.378453,-1.458822 6.950978,0.152162 4.299558,1.938831 8.712275,2.130359 11.740708,0.509591 2.751937,-1.47274 3.128296,-1.362984 3.128296,0.912338 0,3.521649 -11.629914,4.802012 -16.231468,1.786958 -1.969036,-1.290162 -2.65029,-1.327535 -4.154143,-0.227891 -3.150354,2.303595 -8.937753,2.714527 -13.352513,0.94809 -3.727355,-1.491391 -4.470851,-1.496465 -8.703635,-0.0594 -5.229786,1.775561 -6.894195,1.838546 -10.808241,0.409014 z M 10.112337,53.739906 C 7.9708578,52.239956 7.0344315,49.29661 8.6987009,49.29661 c 0.4448787,0 1.6823791,0.660688 2.7500001,1.468197 2.504451,1.894271 5.493544,1.906773 9.076823,0.03796 3.727868,-1.944218 6.483104,-1.89402 10.870207,0.198044 3.087544,1.472347 4.010499,1.524815 6.783927,0.385652 5.561611,-2.284386 8.671178,-2.41119 12.855695,-0.524236 4.067726,1.834289 4.22717,1.819218 11.104478,-1.049599 2.746198,-1.145556 2.168817,1.979539 -0.714817,3.868968 -3.075598,2.015209 -9.520377,2.093445 -12.094053,0.146813 -1.067622,-0.807504 -2.84113,-1.468192 -3.94113,-1.468192 -1.1,0 -2.873508,0.660688 -3.94113,1.468196 -2.578947,1.950618 -7.672121,1.858701 -12.024943,-0.217015 -3.313888,-1.580283 -3.753966,-1.580283 -7.067854,0 -4.41757,2.106592 -9.345609,2.158317 -12.243567,0.128508 z m 1.027494,-4.188677 C 7.6397465,47.809294 6.7701168,45.29661 9.6673243,45.29661 c 0.9776217,0 2.7204227,0.660453 3.8728907,1.467673 1.876427,1.3143 2.62951,1.242017 7.206495,-0.691704 l 5.111098,-2.159376 4.766011,1.987603 c 4.763134,1.986402 4.768914,1.986384 9.571824,-0.03035 4.686263,-1.967749 4.922585,-1.973308 9.5,-0.223486 5.835395,2.230714 5.881105,2.231812 10.444188,0.250809 3.531536,-1.533171 3.748497,-1.525282 3.724202,0.135406 -0.01544,1.055213 -1.552645,2.466237 -3.827614,3.51342 -4.692156,2.159829 -6.083308,2.183052 -8.985896,0.15 -2.928762,-2.051385 -8.392622,-2.051385 -11.321384,0 -2.59946,1.820732 -5.956325,2.082983 -7.456759,0.582549 -2.441996,-2.441996 -7.075313,-2.799594 -11.368611,-0.877427 -5.013204,2.244479 -5.538319,2.252519 -9.763938,0.149497 z"
       id="path2832" />
    <path
       style="fill:#d6eff5"
       d="M 11.139831,59.208903 C 8.900055,58.540777 7.8898305,57.626637 7.8898305,56.268018 c 0,-2.085433 1.4607115,-2.653012 2.5000005,-0.971408 0.948213,1.534241 9.237678,1.187012 12.54966,-0.52568 2.644596,-1.367574 3.256084,-1.367574 5.90068,0 3.804812,1.967545 9.337625,1.945248 13.202205,-0.0532 2.850758,-1.474185 3.375164,-1.44039 7.908105,0.509629 4.504292,1.937694 5.162018,1.982696 9.108068,0.623171 4.608407,-1.587725 5.385673,-1.44102 4.506317,0.850545 -0.917618,2.391276 -8.00336,3.85349 -12.632813,2.606908 -2.176778,-0.586145 -4.225244,-1.498488 -4.552147,-2.027429 -0.356169,-0.576293 -1.475185,-0.385277 -2.792222,0.476633 -3.967932,2.596738 -9.791904,2.864822 -14.060167,0.647205 -3.37157,-1.751731 -4.133928,-1.831933 -6,-0.631216 -3.005831,1.934086 -8.559313,2.577734 -12.387686,1.435727 z M 10.112337,53.739906 C 7.9907661,52.2539 7.0290203,49.29661 8.6673243,49.29661 c 0.4276215,0 1.8077897,0.721647 3.0670397,1.60366 2.442211,1.710591 5.492981,1.512377 10.905467,-0.70855 2.70864,-1.111447 3.79136,-1.111447 6.5,0 5.412486,2.220927 8.463256,2.419141 10.905467,0.70855 2.955101,-2.069833 6.871861,-2.035138 11.350433,0.100545 3.61557,1.724144 3.815488,1.702036 10.7441,-1.188183 3.093201,-1.290306 2.004081,2.301227 -1.20034,3.958298 -3.736861,1.932406 -9.094585,1.958936 -11.60853,0.05748 -1.067622,-0.807505 -2.84113,-1.468193 -3.94113,-1.468193 -1.1,0 -2.873508,0.660688 -3.94113,1.468196 -2.578947,1.950618 -7.672121,1.858701 -12.024943,-0.217015 -3.313888,-1.580283 -3.753966,-1.580283 -7.067854,0 -4.41757,2.106592 -9.345609,2.158317 -12.243567,0.128508 z M 11.16254,49.476323 C 7.7910351,47.721551 6.7829759,45.29661 9.4250138,45.29661 c 0.8443512,0 2.5604072,0.671752 3.8134582,1.492783 2.064072,1.352431 2.765911,1.286762 7.464817,-0.698469 l 5.186542,-2.191251 5.186542,2.191251 c 4.596294,1.941878 5.433185,2.029645 7.353802,0.771209 3.947267,-2.586349 8.630411,-2.823894 12.839633,-0.651271 3.516013,1.814819 4.144542,1.865869 6.70034,0.544215 3.459243,-1.788845 5.920934,-1.87559 5.915935,-0.208467 -0.0021,0.6875 -2.065604,2.098016 -4.585649,3.13448 -4.552308,1.872309 -4.609669,1.870612 -8.88128,-0.262734 -4.39872,-2.196827 -5.637925,-2.125353 -11.171697,0.644353 -2.946187,1.474595 -3.462616,1.435024 -8.271771,-0.633819 l -5.129398,-2.206608 -4.605347,2.037164 C 15.815406,51.659418 15.3752,51.668891 11.16254,49.476323 z"
       id="path2830" />
    <path
       style="fill:#b6e3ee"
       d="M 13.302541,59.276385 C 9.3266561,58.425622 7.8898305,57.50759 7.8898305,55.818038 c 0,-1.109059 0.7499554,-1.065947 4.0573765,0.233245 3.841922,1.50915 4.321666,1.482123 9.034456,-0.508973 l 4.97708,-2.102756 4.45395,1.970194 c 3.685193,1.630136 5.103207,1.790446 8.215544,0.928791 2.068877,-0.572772 4.38128,-1.440922 5.138673,-1.929222 0.885214,-0.570708 2.992675,-0.173165 5.90027,1.113002 4.51297,1.996302 6.349325,1.872579 12.972651,-0.874019 2.140447,-0.887612 1.367202,2.515218 -0.839968,3.69646 -2.956935,1.582503 -10.167633,1.38712 -13.560582,-0.367442 -2.542179,-1.314612 -3.200555,-1.314612 -5.709582,0 -3.767092,1.973779 -11.121397,1.889027 -14.255136,-0.164278 -1.674691,-1.097299 -2.914987,-1.32759 -3.701656,-0.687301 -2.073557,1.68772 -8.078604,2.833621 -11.270366,2.150646 z m -2.66271,-5.55175 C 9.1273305,52.90409 7.8898305,51.560551 7.8898305,50.738993 c 0,-1.298169 0.410107,-1.281669 3.1322805,0.126022 3.294549,1.703677 6.241107,1.532912 11.61772,-0.673295 2.697403,-1.106836 3.802597,-1.109049 6.5,-0.01302 5.70269,2.317168 7.767365,2.413824 11.886289,0.556448 3.4977,-1.577243 4.442385,-1.643114 7.195029,-0.501694 5.262402,2.182122 9.333877,2.411066 11.826695,0.665029 2.789743,-1.954008 3.841987,-2.025038 3.841987,-0.259344 0,0.738392 -1.500205,2.150444 -3.33379,3.137894 -3.518441,1.894806 -6.735765,1.746558 -12.376383,-0.57028 -2.773428,-1.139163 -3.696383,-1.086695 -6.783927,0.385652 -4.388338,2.092653 -8.494277,2.180232 -11.06477,0.236008 -1.067622,-0.807508 -3.06613,-1.468196 -4.44113,-1.468196 -1.375,0 -3.373508,0.660688 -4.44113,1.468196 -2.465669,1.864939 -7.264895,1.81886 -10.80887,-0.103778 z m 1,-4.496111 C 9.5773305,48.139693 7.8898305,46.809581 7.8898305,46.27272 c 0,-1.40768 1.6562732,-1.205218 5.2211005,0.638225 2.895522,1.497333 3.334142,1.48889 6.051823,-0.116483 3.668964,-2.16731 9.826483,-2.142918 13.544988,0.05366 2.657861,1.570037 3.047162,1.569625 6.094962,-0.0065 4.289126,-2.217993 8.213126,-2.242923 13.003831,-0.08262 3.622589,1.63356 4.091772,1.645032 6.223143,0.152161 2.500312,-1.751239 5.860153,-2.1615 5.860153,-0.71552 0,0.494468 -1.853699,1.865235 -4.119332,3.046149 l -4.119332,2.147115 -5.275158,-2.186431 -5.275159,-2.186431 -4.695034,2.272827 -4.695034,2.272827 -4.270007,-2.132545 c -5.260189,-2.627065 -6.13782,-2.637824 -10.812129,-0.132544 -4.486218,2.404469 -4.302587,2.40586 -8.988815,-0.06809 z"
       id="path2828" />
    <path
       style="fill:#8ed4e5"
       d="m 9.6398305,58.216511 c -0.9625,-0.560605 -1.75,-1.683477 -1.75,-2.495271 0,-1.290092 0.3715896,-1.283834 2.9503405,0.04969 3.712034,1.919567 6.759837,1.92528 10.413967,0.01952 3.608267,-1.881841 5.663119,-1.881841 9.271386,0 3.722761,1.941554 6.482731,1.894198 10.845123,-0.186082 3.348988,-1.597021 3.827151,-1.592102 8.497715,0.08741 4.893745,1.759766 10.326668,1.538062 11.569018,-0.472103 0.900393,-1.456868 2.452451,-1.076084 2.452451,0.601686 0,3.332235 -10.214094,4.655181 -15.332036,1.985831 -2.499114,-1.303456 -3.169222,-1.302732 -5.70034,0.0062 -3.668028,1.896811 -10.656868,1.8938 -14.29966,-0.0062 -2.499114,-1.303456 -3.169222,-1.302732 -5.70034,0.0062 -3.273209,1.692602 -10.619029,1.916662 -13.2176245,0.403119 z m 1.0000005,-4.491876 c -3.3543653,-1.819773 -3.7181309,-3.966839 -0.5,-2.951167 5.288612,1.669136 7.925552,1.66772 11.452968,-0.0061 3.14794,-1.493795 4.157367,-1.568464 6.749289,-0.499256 5.383615,2.220826 8.539686,2.335929 12.693265,0.462926 3.488645,-1.57316 4.433967,-1.638612 7.185796,-0.497531 5.221055,2.164977 9.184993,2.364638 12.536594,0.631457 2.598859,-1.343971 3.132088,-1.37937 3.132088,-0.207976 0,1.487586 -5.693756,4.639622 -8.380893,4.639622 -0.868249,0 -3.420481,-0.736961 -5.671627,-1.637691 -3.840674,-1.536733 -4.425913,-1.524528 -9.493457,0.197983 -5.114898,1.738607 -5.588746,1.745888 -8.96117,0.137691 -4.294782,-2.048039 -7.161885,-2.102136 -10.492853,-0.197983 -3.208277,1.834017 -6.782978,1.808916 -10.25,-0.07198 z m 1,-4.50488 C 9.5773305,48.135746 7.8898305,46.809581 7.8898305,46.27272 c 0,-1.452921 1.8350611,-1.186614 5.0957085,0.739498 2.743813,1.62081 3.064771,1.62081 5.808584,0 3.694933,-2.182651 9.034597,-2.189259 13.590252,-0.01682 3.35185,1.598386 3.732368,1.598386 6.438219,0 3.620947,-2.138946 9.241619,-2.177093 13.277394,-0.09011 2.858592,1.478236 3.384375,1.478236 6.484267,0 3.873578,-1.847182 5.305576,-2.018212 5.305576,-0.633671 0,0.536253 -2.014538,1.892734 -4.476752,3.014402 l -4.476752,2.039397 -3.758439,-2.014403 c -4.705305,-2.521893 -6.375394,-2.520657 -11.33273,0.0084 l -3.964998,2.02279 -4.4403,-2.02279 C 26.223074,46.94288 24.050663,46.801145 21.362337,48.66191 c -3.518426,2.435332 -5.891248,2.571476 -9.722506,0.557845 z"
       id="path2826" />
    <path
       style="fill:#62c4db"
       d="M 10.139831,58.265448 C 8.9023305,57.768034 7.8898305,56.848413 7.8898305,56.221845 c 0,-0.681942 0.7024361,-0.861423 1.75,-0.447147 4.3655255,1.726415 8.4773085,1.723159 12.3202305,-0.0098 3.766951,-1.698659 4.20678,-1.706659 7.499629,-0.136408 4.426171,2.110693 7.697697,2.109479 12.152601,-0.0045 3.015738,-1.431062 3.97618,-1.485156 6.651129,-0.374609 5.176403,2.149066 9.150182,2.344825 12.494323,0.615502 2.624186,-1.356987 3.132088,-1.388091 3.132088,-0.191778 0,3.275414 -10.436953,4.687021 -15.424407,2.086164 -2.621968,-1.367304 -3.258109,-1.366667 -6.151129,0.0062 -4.048626,1.921199 -8.487845,1.949365 -12.956583,0.08221 -3.028284,-1.265298 -3.907478,-1.265298 -6.935762,0 -3.867351,1.61584 -8.877464,1.786273 -12.282119,0.417769 z m 1,-4.616511 C 9.3523305,52.767764 7.8898305,51.65301 7.8898305,51.171707 c 0,-1.151618 0.1448597,-1.130344 4.3948315,0.645407 3.393527,1.417906 3.975317,1.375859 8.622124,-0.623144 l 4.983045,-2.143648 4.996834,2.14958 4.996833,2.14958 4.700737,-2.141433 4.700737,-2.141433 4.897167,2.068993 c 4.612957,1.948918 5.12622,1.977345 8.843917,0.489818 2.170712,-0.868547 4.252548,-1.273377 4.626302,-0.899624 0.887476,0.887476 -1.369958,2.302392 -5.902226,3.699401 -3.147286,0.970108 -4.240516,0.821824 -8.08068,-1.096046 l -4.440981,-2.217933 -3.904511,2.092692 c -4.766601,2.554746 -5.795201,2.565747 -11.184129,0.119623 -4.197968,-1.905528 -4.302032,-1.905528 -8.5,0 -5.160095,2.342253 -6.334862,2.37866 -10.5,0.325397 z m 0.35819,-4.800017 C 10.457525,48.034819 9.1075247,47.189115 8.4980203,46.969578 7.8885159,46.750041 7.6716177,46.264525 8.0160243,45.890654 c 0.3444066,-0.373871 2.2569067,0.09787 4.2500007,1.048308 3.407471,1.62491 3.834775,1.627468 7.157733,0.04286 4.460988,-2.127297 8.447928,-2.138374 12.857234,-0.03572 3.214006,1.532653 3.705231,1.532653 6.935056,0 1.911823,-0.907222 4.690025,-1.649492 6.173783,-1.649492 1.483758,0 4.26196,0.74227 6.173783,1.649489 3.229825,1.532653 3.72105,1.532653 6.935056,0 3.824054,-1.823564 5.391161,-2.066196 5.391161,-0.834701 0,1.192458 -6.701324,4.190472 -9.283927,4.153409 -1.21884,-0.01749 -3.089581,-0.692492 -4.157203,-1.5 -2.555648,-1.932995 -7.54298,-1.868055 -10.403403,0.135463 -2.442211,1.710591 -5.492981,1.512377 -10.905467,-0.70855 -2.712591,-1.113068 -3.787409,-1.111242 -6.5,0.01104 -4.968121,2.05547 -9.038849,2.291547 -11.14181,0.646156 z"
       id="path2824" />
    <path
       style="fill:#38b4d2"
       d="M 11.139831,58.265448 C 9.9023305,57.768034 8.8898305,56.880725 8.8898305,56.29365 c 0,-0.745437 0.5834453,-0.755157 1.9342585,-0.03222 2.833139,1.51625 7.515575,1.265183 11.456903,-0.614305 3.214006,-1.532653 3.705231,-1.532653 6.935056,0 4.427782,2.10112 8.674262,2.09377 13.112535,-0.02269 3.309538,-1.578209 3.69684,-1.569736 6.891605,0.150759 3.374796,1.817447 8.438313,1.791582 13.169643,-0.06727 1.767394,-0.694378 1.842934,-0.592612 0.649517,0.875004 -2.154493,2.649507 -7.963305,3.249268 -13.257709,1.368862 -4.186237,-1.486819 -5.013488,-1.502275 -8.240477,-0.153952 -4.612916,1.927399 -8.013192,1.895434 -12.250202,-0.115158 -3.129943,-1.485256 -3.672315,-1.485256 -6.802258,0 -3.729738,1.769876 -7.866978,1.982329 -11.348871,0.582779 z m 22.25,-3.927 c -1.1,-0.336025 -3.2846,-1.251595 -4.854666,-2.0346 -2.529163,-1.261315 -3.194046,-1.228869 -5.831039,0.284558 -4.034419,2.315438 -10.00691,2.196239 -12.9535115,-0.258527 -2.9206862,-2.433176 -2.0196737,-2.553548 2.6052895,-0.348057 3.313888,1.580283 3.753966,1.580283 7.067854,0 3.8216,-1.822394 9.996851,-2.253447 10.918524,-0.762149 1.259603,2.038081 6.222123,2.124851 10.55588,0.18457 4.072889,-1.823487 4.651597,-1.854709 7.942324,-0.428502 5.792651,2.510546 6.782361,2.600542 10.145919,0.922578 4.369485,-2.179786 5.914199,-1.960688 3.042642,0.43156 -2.903376,2.418755 -9.035753,2.588714 -13.327488,0.369372 -2.538504,-1.312712 -3.554298,-1.380725 -5.70034,-0.381671 -4.284809,1.994721 -7.490519,2.668746 -9.611388,2.020868 z M 10.641696,48.388312 c -3.6801758,-2.359725 -2.3968558,-3.366919 1.76265,-1.383389 3.029431,1.444634 3.65972,1.439131 7.41834,-0.06477 5.174548,-2.070444 7.376693,-2.065019 11.789605,0.02904 3.062013,1.453021 3.935134,1.494864 6.651129,0.318749 1.719526,-0.744606 4.926411,-1.353834 7.126411,-1.353834 2.2,0 5.406885,0.609228 7.126411,1.353839 2.715995,1.176115 3.589116,1.134272 6.651129,-0.318749 3.924687,-1.862386 4.727769,-2.019659 4.710987,-0.922588 -0.0063,0.4125 -1.836709,1.624683 -4.067553,2.693739 -3.565032,1.708422 -4.441361,1.78404 -7.238527,0.624609 -5.30499,-2.198929 -9.478582,-2.431945 -12.154523,-0.678601 -3.030316,1.985539 -6.408589,2.015088 -8.969054,0.07845 -1.067621,-0.807509 -3.569113,-1.468197 -5.55887,-1.468197 -1.989757,0 -4.491249,0.660688 -5.55887,1.468197 -2.565208,1.940225 -6.302647,1.794999 -9.689265,-0.376495 z"
       id="path2822" />
    <path
       style="fill:#0ca3c8"
       d="m 11.139831,58.265448 c -1.2375005,-0.497414 -2.2500005,-1.45889 -2.2500005,-2.136614 0,-0.958396 0.2666667,-0.965557 1.2000005,-0.03222 1.729709,1.729709 9.524364,1.475894 12.724268,-0.414335 2.515226,-1.485781 2.981449,-1.485781 5.854632,0 4.017849,2.07771 10.600668,2.066964 13.78961,-0.02251 2.322646,-1.521857 2.770782,-1.513903 6.379078,0.113212 3.887422,1.752983 9.420787,1.752266 13.552412,-0.0018 1.761043,-0.747626 1.840882,-0.653339 0.668231,0.789148 -2.243305,2.759507 -9.278032,3.231036 -13.798447,0.924892 -3.329765,-1.698719 -4.1839,-1.79774 -5.733449,-0.664682 -3.198849,2.339056 -8.949151,2.734795 -13.467648,0.926851 -3.849014,-1.540071 -4.476976,-1.544626 -8.188923,-0.0594 -4.450893,1.780938 -7.347824,1.936836 -10.729764,0.577462 z m -0.5,-5.048937 C 9.6773305,52.655906 8.8898305,51.717836 8.8898305,51.13191 c 0,-0.605083 1.0648432,-0.367608 2.4648175,0.54969 3.110331,2.037968 5.80537,2.043771 9.717123,0.02092 3.234882,-1.672822 6.214711,-1.499461 11.486742,0.668281 2.743748,1.128168 3.707396,1.059965 7.185796,-0.508575 4.184517,-1.886954 7.294084,-1.76015 12.855695,0.524236 2.769618,1.137598 3.695968,1.086892 6.75,-0.369474 3.758036,-1.792083 4.702709,-1.323622 1.789827,0.887571 -2.336298,1.773503 -9.271178,1.690602 -11.69113,-0.139757 -2.448488,-1.851944 -5.499488,-1.827686 -8,0.06361 -2.578947,1.950618 -7.672121,1.858701 -12.024943,-0.217015 -3.313888,-1.580283 -3.753966,-1.580283 -7.067854,0 -3.949137,1.883213 -9.067815,2.147583 -11.716073,0.605114 z m 0.75,-4.919901 C 9.6591217,47.150407 9.0361086,46.307001 9.9173243,46.303199 c 0.8401217,-0.0036 2.5011817,0.675408 3.6912437,1.50896 1.970948,1.380506 2.574477,1.316003 6.773193,-0.723891 4.552247,-2.211652 4.667756,-2.217151 9.308757,-0.443136 5.76475,2.203566 5.634001,2.203545 11.393501,0.0018 4.592415,-1.755556 4.800885,-1.749383 9.615521,0.284742 4.253823,1.797188 5.244753,1.89993 7.305812,0.757483 3.832449,-2.12433 5.70667,-1.581554 2.110309,0.611148 -3.859585,2.35319 -6.016978,2.468804 -8.66696,0.464459 -2.617731,-1.979953 -8.723666,-1.854517 -12.398783,0.25471 -2.841058,1.630543 -3.195683,1.630543 -6.614967,0 -4.352548,-2.075542 -9.154928,-2.160873 -12.54512,-0.222864 -3.379996,1.93218 -4.968635,1.838731 -8.5,-0.5 z"
       id="path2820" />
  </g>
</svg>
