<?xml version="1.0" encoding="UTF-8" standalone="no"?>
<!-- Created with Inkscape (http://www.inkscape.org/) -->

<svg
   xmlns:dc="http://purl.org/dc/elements/1.1/"
   xmlns:cc="http://creativecommons.org/ns#"
   xmlns:rdf="http://www.w3.org/1999/02/22-rdf-syntax-ns#"
   xmlns:svg="http://www.w3.org/2000/svg"
   xmlns="http://www.w3.org/2000/svg"
   xmlns:sodipodi="http://sodipodi.sourceforge.net/DTD/sodipodi-0.dtd"
   xmlns:inkscape="http://www.inkscape.org/namespaces/inkscape"
   id="svg2"
   version="1.1"
   inkscape:version="0.47 r22583"
   width="70"
   height="70"
   sodipodi:docname="randonnee.png">
  <metadata
     id="metadata8">
    <rdf:RDF>
      <cc:Work
         rdf:about="">
        <dc:format>image/svg+xml</dc:format>
        <dc:type
           rdf:resource="http://purl.org/dc/dcmitype/StillImage" />
        <dc:title></dc:title>
      </cc:Work>
    </rdf:RDF>
  </metadata>
  <defs
     id="defs6">
    <inkscape:perspective
       sodipodi:type="inkscape:persp3d"
       inkscape:vp_x="0 : 0.5 : 1"
       inkscape:vp_y="0 : 1000 : 0"
       inkscape:vp_z="1 : 0.5 : 1"
       inkscape:persp3d-origin="0.5 : 0.33333333 : 1"
       id="perspective10" />
  </defs>
  <sodipodi:namedview
     pagecolor="#ffffff"
     bordercolor="#666666"
     borderopacity="1"
     objecttolerance="10"
     gridtolerance="10"
     guidetolerance="10"
     inkscape:pageopacity="0"
     inkscape:pageshadow="2"
     inkscape:window-width="1366"
     inkscape:window-height="694"
     id="namedview4"
     showgrid="false"
     inkscape:zoom="3.3714286"
     inkscape:cx="35"
     inkscape:cy="35"
     inkscape:window-x="0"
     inkscape:window-y="25"
     inkscape:window-maximized="1"
     inkscape:current-layer="svg2" />
  <path
     style="fill:#000000"
     d="m 13.509036,63.402872 c -0.871488,-1.050079 -0.429902,-4.637691 1.86089,-15.118571 3.471623,-15.883449 3.089947,-18.607014 -1.823351,-13.011076 -3.166526,3.606473 -6.639795,4.422361 -6.639795,1.559719 0,-2.248737 11.701676,-15.752079 14.842359,-17.127586 3.69909,-1.620068 4.621752,-0.251451 4.642328,6.88613 0.01977,6.857428 4.458432,22.25308 8.141372,28.238621 3.583397,5.823763 3.781273,8.949552 0.566543,8.949552 -1.859532,0 -3.101308,-1.504275 -6.397609,-7.75 -2.249616,-4.2625 -4.406811,-9.256976 -4.793766,-11.098837 -1.039195,-4.946448 -2.020993,-2.816532 -3.807755,8.26056 -1.739872,10.786397 -3.653544,13.751167 -6.591216,10.211488 z M 7.40678,52.279661 c 0,-7 0.391304,-11.5 1,-11.5 0.608695,0 1,4.5 1,11.5 0,7 -0.391305,11.5 -1,11.5 -0.608696,0 -1,-4.5 -1,-11.5 z m 35.604798,10.669567 c -0.282279,-0.456738 0.135822,-3.269238 0.929115,-6.25 1.798317,-6.7571 1.813673,-7.919567 0.10462,-7.919567 -1.147007,0 -1.150157,-1.29955 -0.01999,-8.25 1.852573,-11.39323 1.784421,-11.694549 -1.691344,-7.477844 -3.072632,3.727636 -5.927196,4.88994 -5.927196,2.413399 0,-2.141216 11.944335,-15.685555 13.832608,-15.685555 0.954642,0 4.11617,2.410399 7.025618,5.356442 4.596293,4.654107 5.247413,5.801406 4.965839,8.75 -0.428854,4.490894 -3.201566,4.657346 -3.631869,0.218029 -0.271372,-2.799669 -2.660123,-6.280827 -3.579856,-5.216972 -0.18663,0.215876 0.887994,4.780001 2.388053,10.142501 2.116932,7.567733 2.422112,9.75 1.363494,9.75 -1.782956,0 -1.73354,0.524779 0.636617,6.760727 2.608492,6.863011 2.574309,8.462956 -0.172176,8.058824 -1.720543,-0.25317 -2.672655,-1.82562 -4.583333,-7.569551 -3.305142,-9.936004 -3.813397,-9.775493 -6.332951,2 -0.938962,4.388373 -1.652255,5.75 -3.012157,5.75 -0.980019,0 -2.012809,-0.373695 -2.295089,-0.830433 z M 27.878052,27.356 c -0.758028,-7.078365 -0.28688,-9.576339 1.806214,-9.576339 3.194466,0 4.561315,2.514883 4.891536,9 l 0.330978,6.5 -3.164305,0.306967 -3.164306,0.306967 L 27.878052,27.356 z M 45.60678,17.579661 c -2.121131,-2.121131 -0.744994,-6.8 2,-6.8 0.44,0 0.8,1.8 0.8,4 0,4.134629 -0.732685,4.867315 -2.8,2.8 z m 3.8,-2.910767 c 0,-3.154332 0.283176,-3.627941 1.914169,-3.201427 2.64722,0.692263 6.442442,4.926169 5.615354,6.264424 -0.374007,0.605157 -2.221153,0.996496 -4.104768,0.869641 -3.241397,-0.218296 -3.424755,-0.428846 -3.424755,-3.932638 z m -31.868879,1.768758 c -0.612573,-0.738105 -0.817673,-1.638105 -0.455778,-2 0.361895,-0.361895 -0.07052,-0.657991 -0.960927,-0.657991 -1.271155,0 -1.077848,-0.583825 0.899886,-2.717834 2.386191,-2.5747433 2.659948,-2.6386133 5.199617,-1.2131343 4.214083,2.3653043 3.292023,7.9309683 -1.313919,7.9309683 -1.240311,0 -2.756307,-0.603904 -3.368879,-1.342009 z"
     id="path2818" />
</svg>
