<?xml version="1.0" encoding="UTF-8" standalone="no"?>
<!-- Created with Inkscape (http://www.inkscape.org/) -->

<svg
   xmlns:dc="http://purl.org/dc/elements/1.1/"
   xmlns:cc="http://creativecommons.org/ns#"
   xmlns:rdf="http://www.w3.org/1999/02/22-rdf-syntax-ns#"
   xmlns:svg="http://www.w3.org/2000/svg"
   xmlns="http://www.w3.org/2000/svg"
   xmlns:sodipodi="http://sodipodi.sourceforge.net/DTD/sodipodi-0.dtd"
   xmlns:inkscape="http://www.inkscape.org/namespaces/inkscape"
   id="svg2"
   version="1.1"
   inkscape:version="0.47 r22583"
   width="70"
   height="70"
   sodipodi:docname="snack.png">
  <metadata
     id="metadata8">
    <rdf:RDF>
      <cc:Work
         rdf:about="">
        <dc:format>image/svg+xml</dc:format>
        <dc:type
           rdf:resource="http://purl.org/dc/dcmitype/StillImage" />
        <dc:title></dc:title>
      </cc:Work>
    </rdf:RDF>
  </metadata>
  <defs
     id="defs6">
    <inkscape:perspective
       sodipodi:type="inkscape:persp3d"
       inkscape:vp_x="0 : 0.5 : 1"
       inkscape:vp_y="0 : 1000 : 0"
       inkscape:vp_z="1 : 0.5 : 1"
       inkscape:persp3d-origin="0.5 : 0.33333333 : 1"
       id="perspective10" />
  </defs>
  <sodipodi:namedview
     pagecolor="#ffffff"
     bordercolor="#666666"
     borderopacity="1"
     objecttolerance="10"
     gridtolerance="10"
     guidetolerance="10"
     inkscape:pageopacity="0"
     inkscape:pageshadow="2"
     inkscape:window-width="640"
     inkscape:window-height="489"
     id="namedview4"
     showgrid="false"
     inkscape:zoom="3.3714286"
     inkscape:cx="35"
     inkscape:cy="35"
     inkscape:window-x="0"
     inkscape:window-y="25"
     inkscape:window-maximized="0"
     inkscape:current-layer="svg2" />
  <path
     style="fill:#000000"
     d="M 12.865535,62.611612 C 12.304053,60.812845 8.2968972,37.094402 8.2953602,35.56065 8.2944402,34.641867 11.121322,34.313559 19.03338,34.313559 l 10.739269,0 0.643666,-3 c 1.720686,-8.019783 0.460326,2.753273 -1.930367,16.5 l -2.695605,15.5 -6.259811,0.298053 c -4.467406,0.212711 -6.375831,-0.07362 -6.664997,-1 z M 34.331794,56.8793 c -2.641341,-4.935391 -2.080777,-5.14103 13.202327,-4.843198 12.221891,0.238177 14.281741,0.508022 14.549951,1.906079 0.17184,0.895743 -0.41718,2.358243 -1.30894,3.25 -1.3134,1.313403 -3.88049,1.621378 -13.514767,1.621378 -10.735188,0 -11.994196,-0.188362 -12.928571,-1.934259 z m 25.764818,-0.265741 c 3.24482,-3.244825 1.44781,-3.8 -12.300002,-3.8 -7.425,0 -13.5,0.254584 -13.5,0.565741 0,0.311158 0.465833,1.436158 1.035184,2.5 0.929405,1.73661 2.186262,1.934259 12.3,1.934259 7.428188,0 11.673518,-0.408702 12.464818,-1.2 z m -28.619553,-8.05 c 0.316181,-2.226269 0.488307,-2.25 16.319551,-2.25 15.831242,0 16.003372,0.02373 16.319552,2.25 l 0.31955,2.25 -16.639102,0 -16.639102,0 0.319551,-2.25 z m 1.819551,-5.595012 c 0,-4.072546 3.008742,-5.154988 14.328741,-5.154988 9.337921,0 10.921151,0.249892 12.671261,2 1.1,1.1 2,2.675 2,3.5 0,1.264368 -2.27778,1.5 -14.500002,1.5 -13.427316,0 -14.5,-0.136491 -14.5,-1.845012 z M 61.296612,43.1423 c 0,-0.369193 -0.74475,-1.494193 -1.65499,-2.5 -1.39874,-1.545591 -3.24568,-1.828741 -11.928571,-1.828741 -8.006288,0 -10.620385,0.346801 -11.845012,1.571429 -0.864286,0.864285 -1.571429,1.989285 -1.571429,2.5 0,0.525573 5.858974,0.928571 13.5,0.928571 7.425002,0 13.500002,-0.302067 13.500002,-0.671259 z M 7.2966102,30.938559 c 0,-1.03125 -0.28125,-3.28125 -0.625,-5 l -0.625,-3.125 9.5180108,0 c 10.530098,0 10.119048,0.27019 11.270505,-7.408278 0.899867,-6.0007407 2.991823,-8.3661261 7.961484,-9.0020908 2.2,-0.2815327 3.1,-0.260693 2,0.04631 -3.536553,0.9870309 -4.075691,2.3606972 -0.95,2.4205011 l 2.95,0.05644 -3.5,1.1935577 c -3.22892,1.101115 -3.571464,1.615082 -4.422688,6.635995 -0.6753,3.983227 -0.608271,5.547243 0.25,5.833334 0.644978,0.214992 1.120487,1.365896 1.056687,2.557562 -0.09054,1.691115 -0.216378,1.782568 -0.573325,0.416669 -0.40325,-1.543085 -1.865233,-1.75 -12.364868,-1.75 l -11.9075448,0 0.616793,4.5 c 0.339237,2.475 0.330628,4.5 -0.01913,4.5 -0.349758,0 -0.635924,-0.84375 -0.635924,-1.875 z m 21.9474188,-11.875 c 1.279365,-4.606775 1.33911,-7.25 0.163872,-7.25 -0.48879,0 -1.187783,1.6875 -1.553318,3.75 -0.365534,2.0625 -0.89594,4.5375 -1.178678,5.5 -0.282739,0.9625 -0.0549,1.75 0.506313,1.75 0.561211,0 1.489026,-1.6875 2.061811,-3.75 z m 2.573414,-9.8124997 c 0.08021,-0.515625 -0.0426,-0.5971962 -0.27291,-0.181269 -0.230309,0.415926 -0.830309,0.501869 -1.333333,0.190983 -0.503025,-0.310887 -0.91459,-0.05119 -0.91459,0.577102 0,1.3348947 2.305381,0.7982327 2.520833,-0.586816 z m 7.75,-1.0416667 c 0.332292,-0.3322916 1.194792,-0.3678179 1.916667,-0.078947 0.797733,0.3192263 0.560776,0.5561827 -0.604167,0.6041666 -1.054166,0.043421 -1.644791,-0.1929276 -1.3125,-0.5252193 z m 4.157738,-2.3224144 c 0,-1.0596197 0.353572,-1.708062 0.785715,-1.440983 0.432143,0.2670789 0.785714,1.1340404 0.785714,1.9265811 0,0.7925406 -0.353571,1.440983 -0.785714,1.440983 -0.432143,0 -0.785715,-0.8669615 -0.785715,-1.9265811 z M 39.567443,5.2093926 c 0.332292,-0.3322916 1.194792,-0.3678179 1.916667,-0.078947 0.797733,0.3192262 0.560776,0.5561826 -0.604167,0.6041665 -1.054166,0.043421 -1.644791,-0.1929276 -1.3125,-0.5252193 z"
     id="path2818" />
</svg>
