<?xml version="1.0" encoding="UTF-8" standalone="no"?>
<!-- Created with Inkscape (http://www.inkscape.org/) -->

<svg
   xmlns:dc="http://purl.org/dc/elements/1.1/"
   xmlns:cc="http://creativecommons.org/ns#"
   xmlns:rdf="http://www.w3.org/1999/02/22-rdf-syntax-ns#"
   xmlns:svg="http://www.w3.org/2000/svg"
   xmlns="http://www.w3.org/2000/svg"
   xmlns:xlink="http://www.w3.org/1999/xlink"
   xmlns:sodipodi="http://sodipodi.sourceforge.net/DTD/sodipodi-0.dtd"
   xmlns:inkscape="http://www.inkscape.org/namespaces/inkscape"
   width="70"
   height="70"
   id="svg2"
   version="1.1"
   inkscape:version="0.47 r22583"
   sodipodi:docname="letto.svg">
  <defs
     id="defs4">
    <inkscape:perspective
       sodipodi:type="inkscape:persp3d"
       inkscape:vp_x="0 : 526.18109 : 1"
       inkscape:vp_y="0 : 1000 : 0"
       inkscape:vp_z="744.09448 : 526.18109 : 1"
       inkscape:persp3d-origin="372.04724 : 350.78739 : 1"
       id="perspective10" />
    <inkscape:perspective
       id="perspective2824"
       inkscape:persp3d-origin="0.5 : 0.33333333 : 1"
       inkscape:vp_z="1 : 0.5 : 1"
       inkscape:vp_y="0 : 1000 : 0"
       inkscape:vp_x="0 : 0.5 : 1"
       sodipodi:type="inkscape:persp3d" />
    <inkscape:perspective
       id="perspective2840"
       inkscape:persp3d-origin="0.5 : 0.33333333 : 1"
       inkscape:vp_z="1 : 0.5 : 1"
       inkscape:vp_y="0 : 1000 : 0"
       inkscape:vp_x="0 : 0.5 : 1"
       sodipodi:type="inkscape:persp3d" />
    <inkscape:perspective
       id="perspective10-3"
       inkscape:persp3d-origin="0.5 : 0.33333333 : 1"
       inkscape:vp_z="1 : 0.5 : 1"
       inkscape:vp_y="0 : 1000 : 0"
       inkscape:vp_x="0 : 0.5 : 1"
       sodipodi:type="inkscape:persp3d" />
    <inkscape:perspective
       id="perspective2880"
       inkscape:persp3d-origin="0.5 : 0.33333333 : 1"
       inkscape:vp_z="1 : 0.5 : 1"
       inkscape:vp_y="0 : 1000 : 0"
       inkscape:vp_x="0 : 0.5 : 1"
       sodipodi:type="inkscape:persp3d" />
    <inkscape:perspective
       id="perspective2917"
       inkscape:persp3d-origin="0.5 : 0.33333333 : 1"
       inkscape:vp_z="1 : 0.5 : 1"
       inkscape:vp_y="0 : 1000 : 0"
       inkscape:vp_x="0 : 0.5 : 1"
       sodipodi:type="inkscape:persp3d" />
    <inkscape:perspective
       id="perspective2933"
       inkscape:persp3d-origin="0.5 : 0.33333333 : 1"
       inkscape:vp_z="1 : 0.5 : 1"
       inkscape:vp_y="0 : 1000 : 0"
       inkscape:vp_x="0 : 0.5 : 1"
       sodipodi:type="inkscape:persp3d" />
    <inkscape:perspective
       id="perspective2951"
       inkscape:persp3d-origin="0.5 : 0.33333333 : 1"
       inkscape:vp_z="1 : 0.5 : 1"
       inkscape:vp_y="0 : 1000 : 0"
       inkscape:vp_x="0 : 0.5 : 1"
       sodipodi:type="inkscape:persp3d" />
    <inkscape:perspective
       id="perspective2967"
       inkscape:persp3d-origin="0.5 : 0.33333333 : 1"
       inkscape:vp_z="1 : 0.5 : 1"
       inkscape:vp_y="0 : 1000 : 0"
       inkscape:vp_x="0 : 0.5 : 1"
       sodipodi:type="inkscape:persp3d" />
    <inkscape:perspective
       id="perspective2983"
       inkscape:persp3d-origin="0.5 : 0.33333333 : 1"
       inkscape:vp_z="1 : 0.5 : 1"
       inkscape:vp_y="0 : 1000 : 0"
       inkscape:vp_x="0 : 0.5 : 1"
       sodipodi:type="inkscape:persp3d" />
    <inkscape:perspective
       id="perspective2999"
       inkscape:persp3d-origin="0.5 : 0.33333333 : 1"
       inkscape:vp_z="1 : 0.5 : 1"
       inkscape:vp_y="0 : 1000 : 0"
       inkscape:vp_x="0 : 0.5 : 1"
       sodipodi:type="inkscape:persp3d" />
    <inkscape:perspective
       id="perspective3118"
       inkscape:persp3d-origin="0.5 : 0.33333333 : 1"
       inkscape:vp_z="1 : 0.5 : 1"
       inkscape:vp_y="0 : 1000 : 0"
       inkscape:vp_x="0 : 0.5 : 1"
       sodipodi:type="inkscape:persp3d" />
    <inkscape:perspective
       id="perspective3199"
       inkscape:persp3d-origin="0.5 : 0.33333333 : 1"
       inkscape:vp_z="1 : 0.5 : 1"
       inkscape:vp_y="0 : 1000 : 0"
       inkscape:vp_x="0 : 0.5 : 1"
       sodipodi:type="inkscape:persp3d" />
  </defs>
  <sodipodi:namedview
     id="base"
     pagecolor="#ffffff"
     bordercolor="#666666"
     borderopacity="1.0"
     inkscape:pageopacity="0.0"
     inkscape:pageshadow="2"
     inkscape:zoom="1.6516129"
     inkscape:cx="-3.3165163"
     inkscape:cy="39.962332"
     inkscape:document-units="px"
     inkscape:current-layer="layer1"
     showgrid="false"
     inkscape:window-width="628"
     inkscape:window-height="485"
     inkscape:window-x="669"
     inkscape:window-y="55"
     inkscape:window-maximized="0"
     units="cm" />
  <metadata
     id="metadata7">
    <rdf:RDF>
      <cc:Work
         rdf:about="">
        <dc:format>image/svg+xml</dc:format>
        <dc:type
           rdf:resource="http://purl.org/dc/dcmitype/StillImage" />
        <dc:title></dc:title>
      </cc:Work>
    </rdf:RDF>
  </metadata>
  <g
     inkscape:label="Livello 1"
     inkscape:groupmode="layer"
     id="layer1"
     transform="translate(-10012,-557.02885)">
    <image
       y="465.93362"
       x="322.14285"
       id="image2826"
       height="70"
       width="70"
       xlink:href="file:///home/alessandra/Scrivania/cartella%20senza%20nome/OMBRETTA/vecchiano/lit2.gif" />
    <path
       style="fill:#000000"
       d="m 10015.722,618.01716 c 0,-1.30208 4.222,-1.5 32,-1.5 27.778,0 32,0.19792 32,1.5 0,1.30208 -4.222,1.5 -32,1.5 -27.778,0 -32,-0.19792 -32,-1.5 z m 3.682,-3.1514 c -0.375,-0.37506 -0.682,-1.05693 -0.682,-1.51527 0,-0.45833 13.087,-0.83333 29.083,-0.83333 22.822,0 28.994,0.26911 28.667,1.25 -0.317,0.95173 -7.094,1.3133 -28.401,1.51526 -15.392,0.1459 -28.292,-0.0416 -28.667,-0.41666 z m 3.318,-4.8486 c 0,-1.34567 3.105,-1.50149 25.25,-1.26717 15.989,0.16917 25.25,0.63396 25.25,1.26717 0,0.63321 -9.261,1.098 -25.25,1.26717 -22.145,0.23432 -25.25,0.0785 -25.25,-1.26717 z m -0.235,-12.24923 c 0.146,-5.36292 0.512,-11.66327 0.812,-14.00077 0.473,-3.68898 0.867,-4.25 2.984,-4.25 2.302,0 2.439,0.3235 2.445,5.75 0,3.1625 0.295,9.4625 0.648,14 l 0.642,8.25 -3.898,7.7e-4 -3.898,7.8e-4 0.265,-9.75078 z m 14.235,6.40479 c 0,-1.83944 0.293,-8.13944 0.652,-14 0.622,-10.16244 0.755,-10.65556 2.883,-10.65556 2.992,0 3.435,2.08641 3.451,16.25 l 0.01,11.75 -3.5,0 c -3.302,0 -3.5,-0.18889 -3.5,-3.34444 z m 14.803,-9.40532 c 0.167,-7.01263 0.491,-13.31274 0.719,-14.00024 0.228,-0.6875 1.554,-1.25 2.947,-1.25 2.442,0 2.531,0.2224 2.531,6.34912 0,3.49202 0.291,9.79202 0.647,14 l 0.646,7.65088 -3.896,2.4e-4 -3.897,2.4e-4 0.303,-12.75024 z m 14.197,9.40532 c 0,-1.83944 0.293,-8.13944 0.652,-14 0.62,-10.12779 0.761,-10.65556 2.861,-10.65556 1.917,0 2.291,0.69161 2.839,5.25 0.347,2.8875 0.635,9.1875 0.639,14 l 0,8.75 -3.5,0 c -3.302,0 -3.5,-0.18889 -3.5,-3.34444 z m -46.541,-26.72209 c -0.363,-0.58659 -0.502,-1.20552 -0.309,-1.37539 0.192,-0.16987 6.755,-2.63778 14.584,-5.48423 l 14.234,-5.17538 12.641,4.58275 c 14.635,5.30537 16.661,6.27226 15.86,7.56895 -0.849,1.37395 -56.159,1.26073 -57.01,-0.1167 z m 26.552,-3.42073 c -0.679,-0.818 -0.962,-2.19743 -0.629,-3.0654 0.676,-1.76252 0.847,-1.79717 -10.216,2.07237 l -6.666,2.33142 9.372,0.0744 c 8.187,0.065 9.217,-0.11368 8.139,-1.41283 z m 12.545,-1.56136 c -9.314,-3.46037 -8.942,-3.39982 -8.146,-1.32463 0.344,0.89471 0.112,2.24471 -0.515,3 -0.952,1.14733 0.32,1.36525 7.733,1.32463 l 8.872,-0.0486 -7.944,-2.95138 z"
       id="path3205" />
  </g>
</svg>
