<?xml version="1.0" encoding="UTF-8" standalone="no"?>
<!-- Created with Inkscape (http://www.inkscape.org/) -->

<svg
   xmlns:dc="http://purl.org/dc/elements/1.1/"
   xmlns:cc="http://creativecommons.org/ns#"
   xmlns:rdf="http://www.w3.org/1999/02/22-rdf-syntax-ns#"
   xmlns:svg="http://www.w3.org/2000/svg"
   xmlns="http://www.w3.org/2000/svg"
   xmlns:xlink="http://www.w3.org/1999/xlink"
   xmlns:sodipodi="http://sodipodi.sourceforge.net/DTD/sodipodi-0.dtd"
   xmlns:inkscape="http://www.inkscape.org/namespaces/inkscape"
   width="70"
   height="70"
   id="svg2"
   version="1.1"
   inkscape:version="0.47 r22583"
   sodipodi:docname="terme.svg">
  <defs
     id="defs4">
    <inkscape:perspective
       sodipodi:type="inkscape:persp3d"
       inkscape:vp_x="0 : 526.18109 : 1"
       inkscape:vp_y="0 : 1000 : 0"
       inkscape:vp_z="744.09448 : 526.18109 : 1"
       inkscape:persp3d-origin="372.04724 : 350.78739 : 1"
       id="perspective10" />
    <inkscape:perspective
       id="perspective2824"
       inkscape:persp3d-origin="0.5 : 0.33333333 : 1"
       inkscape:vp_z="1 : 0.5 : 1"
       inkscape:vp_y="0 : 1000 : 0"
       inkscape:vp_x="0 : 0.5 : 1"
       sodipodi:type="inkscape:persp3d" />
    <inkscape:perspective
       id="perspective2840"
       inkscape:persp3d-origin="0.5 : 0.33333333 : 1"
       inkscape:vp_z="1 : 0.5 : 1"
       inkscape:vp_y="0 : 1000 : 0"
       inkscape:vp_x="0 : 0.5 : 1"
       sodipodi:type="inkscape:persp3d" />
    <inkscape:perspective
       id="perspective10-3"
       inkscape:persp3d-origin="0.5 : 0.33333333 : 1"
       inkscape:vp_z="1 : 0.5 : 1"
       inkscape:vp_y="0 : 1000 : 0"
       inkscape:vp_x="0 : 0.5 : 1"
       sodipodi:type="inkscape:persp3d" />
    <inkscape:perspective
       id="perspective2880"
       inkscape:persp3d-origin="0.5 : 0.33333333 : 1"
       inkscape:vp_z="1 : 0.5 : 1"
       inkscape:vp_y="0 : 1000 : 0"
       inkscape:vp_x="0 : 0.5 : 1"
       sodipodi:type="inkscape:persp3d" />
    <inkscape:perspective
       id="perspective2917"
       inkscape:persp3d-origin="0.5 : 0.33333333 : 1"
       inkscape:vp_z="1 : 0.5 : 1"
       inkscape:vp_y="0 : 1000 : 0"
       inkscape:vp_x="0 : 0.5 : 1"
       sodipodi:type="inkscape:persp3d" />
    <inkscape:perspective
       id="perspective2933"
       inkscape:persp3d-origin="0.5 : 0.33333333 : 1"
       inkscape:vp_z="1 : 0.5 : 1"
       inkscape:vp_y="0 : 1000 : 0"
       inkscape:vp_x="0 : 0.5 : 1"
       sodipodi:type="inkscape:persp3d" />
    <inkscape:perspective
       id="perspective2951"
       inkscape:persp3d-origin="0.5 : 0.33333333 : 1"
       inkscape:vp_z="1 : 0.5 : 1"
       inkscape:vp_y="0 : 1000 : 0"
       inkscape:vp_x="0 : 0.5 : 1"
       sodipodi:type="inkscape:persp3d" />
    <inkscape:perspective
       id="perspective2967"
       inkscape:persp3d-origin="0.5 : 0.33333333 : 1"
       inkscape:vp_z="1 : 0.5 : 1"
       inkscape:vp_y="0 : 1000 : 0"
       inkscape:vp_x="0 : 0.5 : 1"
       sodipodi:type="inkscape:persp3d" />
    <inkscape:perspective
       id="perspective2983"
       inkscape:persp3d-origin="0.5 : 0.33333333 : 1"
       inkscape:vp_z="1 : 0.5 : 1"
       inkscape:vp_y="0 : 1000 : 0"
       inkscape:vp_x="0 : 0.5 : 1"
       sodipodi:type="inkscape:persp3d" />
    <inkscape:perspective
       id="perspective2999"
       inkscape:persp3d-origin="0.5 : 0.33333333 : 1"
       inkscape:vp_z="1 : 0.5 : 1"
       inkscape:vp_y="0 : 1000 : 0"
       inkscape:vp_x="0 : 0.5 : 1"
       sodipodi:type="inkscape:persp3d" />
  </defs>
  <sodipodi:namedview
     id="base"
     pagecolor="#ffffff"
     bordercolor="#666666"
     borderopacity="1.0"
     inkscape:pageopacity="0.0"
     inkscape:pageshadow="2"
     inkscape:zoom="3"
     inkscape:cx="-3.3165163"
     inkscape:cy="30.283531"
     inkscape:document-units="px"
     inkscape:current-layer="layer1"
     showgrid="false"
     inkscape:window-width="1366"
     inkscape:window-height="694"
     inkscape:window-x="0"
     inkscape:window-y="25"
     inkscape:window-maximized="1"
     units="cm" />
  <metadata
     id="metadata7">
    <rdf:RDF>
      <cc:Work
         rdf:about="">
        <dc:format>image/svg+xml</dc:format>
        <dc:type
           rdf:resource="http://purl.org/dc/dcmitype/StillImage" />
        <dc:title></dc:title>
      </cc:Work>
    </rdf:RDF>
  </metadata>
  <g
     inkscape:label="Livello 1"
     inkscape:groupmode="layer"
     id="layer1"
     transform="translate(-10012,-557.02885)">
    <image
       y="465.93362"
       x="322.14285"
       id="image2826"
       height="70"
       width="70"
       xlink:href="file:///home/alessandra/Scrivania/cartella%20senza%20nome/OMBRETTA/vecchiano/lit2.gif" />
    <g
       id="g3033"
       transform="translate(-15,-14.333333)">
      <path
         style="fill:#fefefe"
         d="m 10027,606.36218 0,-35 35,0 35,0 0,35 0,35 -35,0 -35,0 0,-35 z"
         id="path3045" />
      <path
         style="fill:#a7ddeb"
         d="m 10049.368,629.71403 1.263,-3.64815 11.312,0 11.313,0 1.372,3.26296 c 0.755,1.79463 1.372,3.43629 1.372,3.64815 0,0.21185 -6.276,0.38519 -13.948,0.38519 l -13.947,0 1.263,-3.64815 z m -0.127,-8.9191 c -4.869,-2.42628 -11.241,-8.35989 -11.241,-10.46755 0,-0.59346 9.243,-0.9652 24,-0.9652 14.757,0 24,0.37174 24,0.9652 0,2.1716 -6.812,8.50363 -11.493,10.68349 -7.298,3.39862 -18.2,3.30544 -25.266,-0.21594 z m 1.759,-22.31031 c 0,-4.80148 -0.44,-7.24236 -1.456,-8.08609 -2.229,-1.84986 -3.544,-0.33545 -3.544,4.08168 0,2.41203 -0.397,3.75465 -1,3.38197 -1.401,-0.8659 -1.251,-7.84913 0.2,-9.3 0.66,-0.66 2.145,-1.2 3.3,-1.2 1.155,0 2.64,0.54 3.3,1.2 1.478,1.47786 1.66,16.8 0.2,16.8 -0.57,0 -1,-2.95919 -1,-6.87756 z m 4,-1.12244 c 0,-6.66667 -0.333,-8.33333 -2,-10 -3.977,-3.97678 -10.597,-1.46502 -11.236,4.263 -0.285,2.55404 -0.532,2.8673 -1.171,1.48476 -1.314,-2.84754 0.224,-6.60151 3.372,-8.22957 4.243,-2.19427 6.425,-1.89034 9.929,1.38302 2.98,2.78361 3.106,3.22949 3.106,11 0,4.73253 -0.416,8.09879 -1,8.09879 -0.583,0 -1,-3.33333 -1,-8 z m 4,-0.48422 c 0,-7.96112 -0.18,-8.68558 -2.918,-11.75 -2.479,-2.77492 -3.597,-3.26578 -7.434,-3.26578 -3.634,0 -5.115,0.57371 -7.582,2.93709 -1.686,1.6154 -3.066,3.5279 -3.066,4.25 0,0.7221 -0.45,1.31291 -1,1.31291 -1.763,0 -1.072,-2.76056 1.437,-5.74229 1.34,-1.59266 4.311,-3.51444 6.602,-4.27062 3.87,-1.27717 4.474,-1.21151 8.499,0.92395 5.75,3.05001 7.462,6.83415 7.462,16.49009 0,4.39925 -0.421,7.59887 -1,7.59887 -0.588,0 -1,-3.49474 -1,-8.48422 z m 4,0.43456 c 0,-9.77052 1.507,-13.14799 7.151,-16.02736 5.394,-2.75165 9.762,-1.94313 14.364,2.65843 3.512,3.51274 4.327,5.78018 2.485,6.91859 -0.55,0.33992 -1,-0.22433 -1,-1.25389 0,-1.02956 -1.38,-3.19362 -3.066,-4.80902 -4.177,-4.00142 -10.793,-4.0318 -14.759,-0.0678 -2.433,2.43185 -2.707,3.487 -3.024,11.65234 -0.193,4.93808 -0.755,8.97834 -1.25,8.97834 -0.496,0 -0.901,-3.62235 -0.901,-8.04966 z m 4,0.004 c 0,-7.17194 0.262,-8.30754 2.414,-10.45933 1.328,-1.32763 3.617,-2.7158 5.087,-3.08481 4.968,-1.24698 11.034,5.68795 8.941,10.22258 -0.692,1.49928 -0.93,1.13136 -1.211,-1.86793 -0.587,-6.26254 -5.714,-8.53308 -10.596,-4.69247 -2.451,1.92764 -2.635,2.62695 -2.635,10 0,4.61828 -0.417,7.92742 -1,7.92742 -0.584,0 -1,-3.34849 -1,-8.04545 z m 4,0.70044 c 0,-5.84573 0.373,-7.68283 1.829,-9 2.283,-2.06619 3.597,-2.0858 5.6,-0.0836 1.743,1.74345 2.158,8.94797 0.571,9.92858 -0.611,0.37774 -1,-1.16674 -1,-3.97237 0,-3.28648 -0.455,-4.7649 -1.601,-5.20473 -2.439,-0.93612 -3.367,1.51074 -3.384,8.9271 0,3.82312 -0.449,6.75 -1.015,6.75 -0.576,0 -1,-3.115 -1,-7.34501 z"
         id="path3043" />
      <path
         style="fill:#78cce0"
         d="m 10049.368,629.71403 1.263,-3.64815 11.312,0 11.313,0 1.372,3.26296 c 0.755,1.79463 1.372,3.43629 1.372,3.64815 0,0.21185 -6.276,0.38519 -13.948,0.38519 l -13.947,0 1.263,-3.64815 z m -0.127,-8.9191 c -4.869,-2.42628 -11.241,-8.35989 -11.241,-10.46755 0,-0.59346 9.243,-0.9652 24,-0.9652 14.757,0 24,0.37174 24,0.9652 0,2.1716 -6.812,8.50363 -11.493,10.68349 -7.298,3.39862 -18.2,3.30544 -25.266,-0.21594 z m 1.759,-22.31031 c 0,-4.80148 -0.44,-7.24236 -1.456,-8.08609 -2.229,-1.84986 -3.544,-0.33545 -3.544,4.08168 0,2.41203 -0.397,3.75465 -1,3.38197 -1.401,-0.8659 -1.251,-7.84913 0.2,-9.3 0.66,-0.66 2.145,-1.2 3.3,-1.2 1.155,0 2.64,0.54 3.3,1.2 1.478,1.47786 1.66,16.8 0.2,16.8 -0.57,0 -1,-2.95919 -1,-6.87756 z m 4,-1.12244 c 0,-6.66667 -0.333,-8.33333 -2,-10 -3.98,-3.97997 -11,-1.35338 -11,4.11572 0,1.7469 -0.418,2.74388 -1,2.38428 -2.614,-1.6158 -0.433,-7.14375 3.684,-9.33666 3.454,-1.83923 5.869,-1.38348 9.21,1.73787 2.98,2.78361 3.106,3.22949 3.106,11 0,4.73253 -0.416,8.09879 -1,8.09879 -0.583,0 -1,-3.33333 -1,-8 z m 4,-0.48422 c 0,-7.96112 -0.18,-8.68558 -2.918,-11.75 -2.479,-2.77492 -3.597,-3.26578 -7.434,-3.26578 -3.634,0 -5.115,0.57371 -7.582,2.93709 -1.686,1.6154 -3.066,3.5279 -3.066,4.25 0,0.7221 -0.45,1.31291 -1,1.31291 -1.763,0 -1.072,-2.76056 1.437,-5.74229 1.34,-1.59266 4.311,-3.51444 6.602,-4.27062 3.87,-1.27717 4.474,-1.21151 8.499,0.92395 5.75,3.05001 7.462,6.83415 7.462,16.49009 0,4.39925 -0.421,7.59887 -1,7.59887 -0.588,0 -1,-3.49474 -1,-8.48422 z m 4,0.43456 c 0,-9.77052 1.507,-13.14799 7.151,-16.02736 5.394,-2.75165 9.762,-1.94313 14.364,2.65843 3.512,3.51274 4.327,5.78018 2.485,6.91859 -0.55,0.33992 -1,-0.22433 -1,-1.25389 0,-1.02956 -1.38,-3.19362 -3.066,-4.80902 -4.177,-4.00142 -10.793,-4.0318 -14.759,-0.0678 -2.433,2.43185 -2.707,3.487 -3.024,11.65234 -0.193,4.93808 -0.755,8.97834 -1.25,8.97834 -0.496,0 -0.901,-3.62235 -0.901,-8.04966 z m 4,0.004 c 0,-7.17194 0.262,-8.30754 2.414,-10.45933 1.328,-1.32763 3.617,-2.7158 5.087,-3.08481 4.968,-1.24698 11.034,5.68795 8.941,10.22258 -0.692,1.49928 -0.93,1.13136 -1.211,-1.86793 -0.587,-6.26254 -5.714,-8.53308 -10.596,-4.69247 -2.451,1.92764 -2.635,2.62695 -2.635,10 0,4.61828 -0.417,7.92742 -1,7.92742 -0.584,0 -1,-3.34849 -1,-8.04545 z m 4,0.70044 c 0,-5.84573 0.373,-7.68283 1.829,-9 2.283,-2.06619 3.597,-2.0858 5.6,-0.0836 1.743,1.74345 2.158,8.94797 0.571,9.92858 -0.611,0.37774 -1,-1.16674 -1,-3.97237 0,-3.28648 -0.455,-4.7649 -1.601,-5.20473 -2.439,-0.93612 -3.367,1.51074 -3.384,8.9271 0,3.82312 -0.449,6.75 -1.015,6.75 -0.576,0 -1,-3.115 -1,-7.34501 z"
         id="path3041" />
      <path
         style="fill:#40b7d3"
         d="m 10049.368,629.71403 1.263,-3.64815 11.312,0 11.313,0 1.372,3.26296 c 0.755,1.79463 1.372,3.43629 1.372,3.64815 0,0.21185 -6.276,0.38519 -13.948,0.38519 l -13.947,0 1.263,-3.64815 z m -0.127,-8.9191 c -4.869,-2.42628 -11.241,-8.35989 -11.241,-10.46755 0,-0.59346 9.243,-0.9652 24,-0.9652 14.757,0 24,0.37174 24,0.9652 0,2.1716 -6.812,8.50363 -11.493,10.68349 -7.298,3.39862 -18.2,3.30544 -25.266,-0.21594 z m 1.759,-22.82576 c 0,-5.83554 -0.335,-7.52157 -1.59,-8.00325 -2.536,-0.9729 -3.41,0.22093 -3.41,4.65528 0,2.93696 -0.311,3.83039 -1.068,3.07276 -1.589,-1.58851 -0.708,-8.45624 1.24,-9.6764 1.184,-0.74095 2.426,-0.70372 4.25,0.12728 2.459,1.12011 2.578,1.54567 2.578,9.1959 0,4.68096 -0.416,8.02144 -1,8.02144 -0.576,0 -1,-3.131 -1,-7.39301 z m 4,-0.60699 c 0,-6.66667 -0.333,-8.33333 -2,-10 -3.98,-3.97997 -11,-1.35338 -11,4.11572 0,1.7469 -0.418,2.74388 -1,2.38428 -3.078,-1.90203 0.655,-8.40817 5.7,-9.93659 2.636,-0.79864 7.806,1.6444 9.27,4.3812 1.334,2.49139 1.359,17.05539 0.03,17.05539 -0.583,0 -1,-3.33333 -1,-8 z m 4,-0.48422 c 0,-7.96112 -0.18,-8.68558 -2.918,-11.75 -2.479,-2.77492 -3.597,-3.26578 -7.434,-3.26578 -3.634,0 -5.115,0.57371 -7.582,2.93709 -1.686,1.6154 -3.066,3.5279 -3.066,4.25 0,0.7221 -0.45,1.31291 -1,1.31291 -1.763,0 -1.072,-2.76056 1.437,-5.74229 1.34,-1.59266 4.311,-3.51444 6.602,-4.27062 3.87,-1.27717 4.474,-1.21151 8.499,0.92395 5.75,3.05001 7.462,6.83415 7.462,16.49009 0,4.39925 -0.421,7.59887 -1,7.59887 -0.588,0 -1,-3.49474 -1,-8.48422 z m 4,0.38851 c 0,-9.61498 1.61,-13.12469 7.38,-16.08629 5.15,-2.64338 9.597,-1.77397 14.135,2.76341 3.512,3.51274 4.327,5.78018 2.485,6.91859 -0.55,0.33992 -1,-0.22433 -1,-1.25389 0,-1.02956 -1.38,-3.19362 -3.066,-4.80902 -4.177,-4.00142 -10.793,-4.0318 -14.759,-0.0678 -2.433,2.43185 -2.707,3.487 -3.024,11.65234 -0.193,4.93808 -0.755,8.97834 -1.25,8.97834 -0.496,0 -0.901,-3.64307 -0.901,-8.09571 z m 4,0.0503 c 0,-7.17194 0.262,-8.30753 2.414,-10.45933 1.328,-1.32763 3.617,-2.71579 5.087,-3.0848 4.968,-1.24698 11.034,5.68795 8.941,10.22257 -0.692,1.49928 -0.93,1.13136 -1.211,-1.86793 -0.587,-6.26254 -5.714,-8.53308 -10.596,-4.69247 -2.451,1.92764 -2.635,2.62695 -2.635,10 0,4.61828 -0.417,7.92742 -1,7.92742 -0.584,0 -1,-3.34849 -1,-8.04545 z m 4,0.70044 c 0,-5.84573 0.373,-7.68283 1.829,-9 2.283,-2.06619 3.597,-2.0858 5.6,-0.0836 1.743,1.74345 2.158,8.94797 0.571,9.92858 -0.611,0.37774 -1,-1.16674 -1,-3.97237 0,-3.28648 -0.455,-4.7649 -1.601,-5.20473 -2.439,-0.93612 -3.367,1.51074 -3.384,8.9271 0,3.82312 -0.449,6.75 -1.015,6.75 -0.576,0 -1,-3.115 -1,-7.34501 z"
         id="path3039" />
      <path
         style="fill:#0ba3c8"
         d="m 10049.368,629.71403 1.263,-3.64815 11.312,0 11.313,0 1.372,3.26296 c 0.755,1.79463 1.372,3.43629 1.372,3.64815 0,0.21185 -6.276,0.38519 -13.948,0.38519 l -13.947,0 1.263,-3.64815 z m -0.127,-8.9191 c -4.869,-2.42628 -11.241,-8.35989 -11.241,-10.46755 0,-0.59346 9.243,-0.9652 24,-0.9652 14.757,0 24,0.37174 24,0.9652 0,2.1716 -6.812,8.50363 -11.493,10.68349 -7.298,3.39862 -18.2,3.30544 -25.266,-0.21594 z m 1.553,-23.68275 c -0.263,-6.4854 -0.505,-7.25 -2.294,-7.25 -1.64,0 -2.056,0.76954 -2.309,4.27279 -0.354,4.91032 -2.191,4.76212 -2.191,-0.17682 0,-3.15427 2.439,-6.59597 4.674,-6.59597 2.737,0 4.326,3.79358 4.326,10.32874 0,9.00719 -1.837,8.52523 -2.206,-0.57874 z m 4.206,-0.25 c 0,-6.16667 -0.356,-7.85556 -2,-9.5 -3.98,-3.97997 -11,-1.35338 -11,4.11572 0,1.7469 -0.418,2.74388 -1,2.38428 -1.774,-1.09628 -1.066,-4.52494 1.455,-7.04545 3.339,-3.33951 8.751,-3.33951 12.09,0 2.173,2.17232 2.455,3.3221 2.455,10 0,4.36363 -0.422,7.54545 -1,7.54545 -0.578,0 -1,-3.16667 -1,-7.5 z m 4,-0.48422 c 0,-7.40869 -0.21,-8.21964 -2.918,-11.25 -2.479,-2.77492 -3.597,-3.26578 -7.434,-3.26578 -3.634,0 -5.115,0.57371 -7.582,2.93709 -1.686,1.6154 -3.066,3.5279 -3.066,4.25 0,0.7221 -0.45,1.31291 -1,1.31291 -1.342,0 -1.267,-0.58302 0.517,-4.03273 4.25,-8.2189 17.952,-7.81973 21.967,0.63992 1.716,3.61746 2.125,17.39281 0.516,17.39281 -0.583,0 -1,-3.32807 -1,-7.98422 z m 4,1.4521 c 0,-11.70718 4.321,-17.46788 13.102,-17.46788 4.197,0 5.295,0.46391 8.365,3.53333 3.408,3.4082 4.606,6.46667 2.533,6.46667 -0.55,0 -1,-0.59081 -1,-1.31291 0,-0.7221 -1.38,-2.6346 -3.066,-4.25 -2.535,-2.42858 -3.864,-2.91979 -7.671,-2.83715 -3.843,0.0834 -5.074,0.62422 -7.434,3.26578 -2.605,2.91479 -2.829,3.79896 -2.829,11.15006 0,4.65615 -0.417,7.98422 -1,7.98422 -0.565,0 -1,-2.84404 -1,-6.53212 z m 4.156,-1.56584 c 0.32,-7.05027 0.672,-8.34404 2.717,-10 3.58,-2.89934 9.479,-2.54072 12.054,0.73282 2.149,2.73138 2.824,7.36514 1.073,7.36514 -0.55,0 -1,-1.33963 -1,-2.97695 0,-5.55831 -7.161,-7.71968 -11.43,-3.45012 -1.145,1.14479 -1.57,3.5816 -1.57,8.9985 0,4.75989 -0.397,7.42857 -1.106,7.42857 -0.747,0 -0.986,-2.62739 -0.738,-8.09796 z m 3.844,1.25295 c 0,-5.36135 0.396,-7.20374 1.829,-8.5 1.006,-0.91025 2.323,-1.65499 2.928,-1.65499 2.293,0 4.243,3.25042 4.243,7.07143 0,5.2901 -1.806,5.02538 -2.193,-0.32143 -0.251,-3.48083 -0.669,-4.25 -2.307,-4.25 -1.789,0 -2.031,0.7646 -2.294,7.25 -0.373,9.20288 -2.206,9.53941 -2.206,0.40499 z"
         id="path3037" />
      <path
         style="fill:#000000"
         d="m 10049.368,629.71403 1.263,-3.64815 11.312,0 11.313,0 1.372,3.26296 c 0.755,1.79463 1.372,3.43629 1.372,3.64815 0,0.21185 -6.276,0.38519 -13.948,0.38519 l -13.947,0 1.263,-3.64815 z m -0.127,-8.9191 c -4.869,-2.42628 -11.241,-8.35989 -11.241,-10.46755 0,-0.59346 9.243,-0.9652 24,-0.9652 14.757,0 24,0.37174 24,0.9652 0,2.1716 -6.812,8.50363 -11.493,10.68349 -7.298,3.39862 -18.2,3.30544 -25.266,-0.21594 z"
         id="path3035" />
    </g>
  </g>
</svg>
