<?xml version="1.0" encoding="UTF-8" standalone="no"?>
<!-- Created with Inkscape (http://www.inkscape.org/) -->

<svg
   xmlns:dc="http://purl.org/dc/elements/1.1/"
   xmlns:cc="http://creativecommons.org/ns#"
   xmlns:rdf="http://www.w3.org/1999/02/22-rdf-syntax-ns#"
   xmlns:svg="http://www.w3.org/2000/svg"
   xmlns="http://www.w3.org/2000/svg"
   xmlns:sodipodi="http://sodipodi.sourceforge.net/DTD/sodipodi-0.dtd"
   xmlns:inkscape="http://www.inkscape.org/namespaces/inkscape"
   id="svg2"
   version="1.1"
   inkscape:version="0.47 r22583"
   width="70"
   height="70"
   sodipodi:docname="volley.png">
  <metadata
     id="metadata8">
    <rdf:RDF>
      <cc:Work
         rdf:about="">
        <dc:format>image/svg+xml</dc:format>
        <dc:type
           rdf:resource="http://purl.org/dc/dcmitype/StillImage" />
        <dc:title></dc:title>
      </cc:Work>
    </rdf:RDF>
  </metadata>
  <defs
     id="defs6">
    <inkscape:perspective
       sodipodi:type="inkscape:persp3d"
       inkscape:vp_x="0 : 0.5 : 1"
       inkscape:vp_y="0 : 1000 : 0"
       inkscape:vp_z="1 : 0.5 : 1"
       inkscape:persp3d-origin="0.5 : 0.33333333 : 1"
       id="perspective10" />
    <inkscape:perspective
       id="perspective2852"
       inkscape:persp3d-origin="0.5 : 0.33333333 : 1"
       inkscape:vp_z="1 : 0.5 : 1"
       inkscape:vp_y="0 : 1000 : 0"
       inkscape:vp_x="0 : 0.5 : 1"
       sodipodi:type="inkscape:persp3d" />
    <inkscape:perspective
       id="perspective4038"
       inkscape:persp3d-origin="0.5 : 0.33333333 : 1"
       inkscape:vp_z="1 : 0.5 : 1"
       inkscape:vp_y="0 : 1000 : 0"
       inkscape:vp_x="0 : 0.5 : 1"
       sodipodi:type="inkscape:persp3d" />
    <inkscape:perspective
       id="perspective4060"
       inkscape:persp3d-origin="0.5 : 0.33333333 : 1"
       inkscape:vp_z="1 : 0.5 : 1"
       inkscape:vp_y="0 : 1000 : 0"
       inkscape:vp_x="0 : 0.5 : 1"
       sodipodi:type="inkscape:persp3d" />
    <inkscape:perspective
       id="perspective4082"
       inkscape:persp3d-origin="0.5 : 0.33333333 : 1"
       inkscape:vp_z="1 : 0.5 : 1"
       inkscape:vp_y="0 : 1000 : 0"
       inkscape:vp_x="0 : 0.5 : 1"
       sodipodi:type="inkscape:persp3d" />
    <inkscape:perspective
       id="perspective4104"
       inkscape:persp3d-origin="0.5 : 0.33333333 : 1"
       inkscape:vp_z="1 : 0.5 : 1"
       inkscape:vp_y="0 : 1000 : 0"
       inkscape:vp_x="0 : 0.5 : 1"
       sodipodi:type="inkscape:persp3d" />
    <inkscape:perspective
       id="perspective4139"
       inkscape:persp3d-origin="0.5 : 0.33333333 : 1"
       inkscape:vp_z="1 : 0.5 : 1"
       inkscape:vp_y="0 : 1000 : 0"
       inkscape:vp_x="0 : 0.5 : 1"
       sodipodi:type="inkscape:persp3d" />
    <inkscape:perspective
       id="perspective4161"
       inkscape:persp3d-origin="0.5 : 0.33333333 : 1"
       inkscape:vp_z="1 : 0.5 : 1"
       inkscape:vp_y="0 : 1000 : 0"
       inkscape:vp_x="0 : 0.5 : 1"
       sodipodi:type="inkscape:persp3d" />
  </defs>
  <sodipodi:namedview
     pagecolor="#ffffff"
     bordercolor="#666666"
     borderopacity="1"
     objecttolerance="10"
     gridtolerance="10"
     guidetolerance="10"
     inkscape:pageopacity="0"
     inkscape:pageshadow="2"
     inkscape:window-width="1366"
     inkscape:window-height="694"
     id="namedview4"
     showgrid="false"
     inkscape:zoom="3.3714286"
     inkscape:cx="94.384034"
     inkscape:cy="36.986007"
     inkscape:window-x="0"
     inkscape:window-y="25"
     inkscape:window-maximized="1"
     inkscape:current-layer="svg2" />
  <path
     style="fill:#000000"
     d="M 30.903695,66.482289 C 30.484857,66.124425 26.286229,57.006018 26.286229,52.382068 l 1.186441,-6.330916 -3.066093,2.619755 -2.421878,2.069312 c -0.132123,2.044918 0.571733,3.060399 1.184052,4.188603 2.113257,3.34479 3.529549,3.762969 2.168398,4.497174 -1.01926,0.549791 -2.122875,0.482947 -3.065795,-0.185687 -1.566433,-1.110776 -5.658402,-7.512161 -5.658402,-8.851877 0,-0.438805 1.706956,-2.501722 3.793238,-4.584257 3.671091,-3.664507 3.760392,-3.934417 2.773201,-8.382081 -0.561021,-2.527607 -1.834798,-6.055499 -2.830618,-7.83976 -1.776624,-3.183267 -1.754643,-3.316335 1.172011,-7.095012 1.640425,-2.117997 3.5984,-3.850902 4.351053,-3.850902 2.522291,0 2.514017,2.474389 -0.01734,5.186875 -2.302829,2.467606 -2.51514,3.029338 -0.96012,5.245594 1.508838,2.150435 4.289969,2.987377 6.084272,3.108335 6.784949,0.457391 1.961862,-0.940141 4.178896,1.043444 1.267457,1.133996 2.736939,2.156887 4.373927,2.896384 1.636989,0.739495 1.661824,0.898995 3.599319,0.899399 1.97122,3.85e-4 4.284113,1.906861 3.411832,3.021284 -0.597274,0.763076 0.361509,0.862464 -9.852995,-1.163338 -1.55129,-0.30766 -4.705195,-1.146168 -4.792478,-0.939489 -0.08728,0.206681 -0.07084,1.775419 -0.427708,8.65969 -0.538001,10.37841 1.889973,14.71465 0.51015,14.330518 -0.902909,-0.251362 -0.65706,5.915053 -1.075897,5.557173 z m -2.810469,-37.24149 c -0.887832,-0.758588 -1.328463,-2.015566 -0.97918,-2.793283 0.938774,-2.090271 5.180742,-1.239759 5.574409,1.117666 0.413884,2.478497 -2.438324,3.518534 -4.595229,1.675617 z M 6.567711,25.388258 c 1.941175,-0.205829 10.624882,-0.205829 12.566057,0 1.941174,0.20583 -5.154298,0.374236 -9.036649,0.374236 -3.882349,0 -5.470582,-0.168406 -3.529408,-0.374236 z m 18.579135,-0.494382 c 4.628956,-0.173933 28.918562,0.301974 33.547516,0.475908 4.628958,0.173931 0.841629,0.31624 -8.416279,0.31624 -9.257912,0 -29.760192,-0.618215 -25.131237,-0.792148 z m 9.202787,-8.684086 c -0.864569,-2.173424 -0.950793,-2.681727 -0.262275,-4.871387 1.732608,-5.5101254 10.760863,-3.0213485 10.760863,2.194659 0,5.075117 -7.243182,6.921844 -10.498588,2.676728 z m 8.151897,-0.07515 c 2.055544,-1.756277 0.634314,-5.035822 -2.173777,-6.1574792 -2.388412,-0.9540206 -4.131764,-0.7314604 -4.04338,1.3663162 0.04368,1.036929 2.046223,1.5285 3.790195,1.154508 1.430941,-0.306861 2.601706,-0.180101 2.601706,0.281688 0,1.003633 -4.902525,1.050101 -6.063724,0.05748 -1.912321,-1.634707 -2.556134,-0.491543 -1.088687,1.933091 1.71355,2.831258 4.600255,3.395718 6.977667,1.364396 z"
     id="path2818"
     sodipodi:nodetypes="ccccccsssssssssssssssssssccssccssccssccssccssssssc" />
  <path
     style="fill:#000000;fill-opacity:1;fill-rule:nonzero;stroke:none"
     id="path4024"
     d="m 6.179363,25.981465 c 0.933511,0.756612 1.809694,1.587992 2.709108,2.387676 1.009717,0.937084 2.132494,1.718709 3.253094,2.503898 1.427285,1.000078 1.175882,0.823214 2.626938,1.830979 1.276791,0.906715 2.546458,1.828612 3.767853,2.814389 0.981123,0.791855 1.916636,1.641671 2.854348,2.486928 0.85121,0.77452 1.682616,1.580331 2.335372,2.543448 0.255922,0.418625 0.40128,0.896261 0.511644,1.374796 0.0587,0.43039 0.145276,0.848634 0.286772,1.257844 0.10502,0.259342 0.139319,0.543077 0.249057,0.80055 0.06687,0.156898 0.126652,0.240424 0.216088,0.384056 0.261896,0.396717 0.609932,0.70553 0.967904,1.004387 0.370859,0.314957 0.737775,0.633767 1.118766,0.93581 0.36074,0.29008 0.729994,0.564595 1.107408,0.830868 0.238482,0.164048 0.120259,0.08161 0.354695,0.247274 0,0 1.503507,0.613049 1.503507,0.613049 l 0,0 c -0.230465,-0.175071 -0.111871,-0.09243 -0.355821,-0.247854 -0.177794,-0.134891 -0.36611,-0.248647 -0.545793,-0.380511 -0.434703,-0.31901 0.08183,0.05261 -0.362478,-0.300618 -0.06618,-0.05262 -0.137449,-0.09803 -0.206173,-0.147036 -0.384073,-0.295762 -0.75068,-0.61235 -1.118418,-0.928714 -0.348241,-0.298731 -0.713523,-0.573307 -0.982635,-0.957538 -0.04226,-0.06256 -0.192647,-0.280977 -0.229124,-0.351222 -0.129329,-0.249058 -0.148299,-0.5357 -0.248633,-0.795861 -0.06717,-0.18199 -0.147653,-0.372868 -0.191816,-0.562561 -0.05159,-0.221571 -0.06252,-0.45484 -0.108649,-0.677679 -0.103598,-0.500267 -0.253835,-0.998697 -0.505002,-1.442011 -0.676288,-1.009716 -1.558097,-1.836593 -2.452816,-2.636958 -0.963748,-0.855869 -1.923751,-1.718591 -2.925588,-2.527155 -1.22523,-0.988861 -2.495489,-1.91831 -3.777397,-2.826375 -1.235669,-0.860436 -1.377706,-0.955387 -2.5899,-1.814763 -0.538842,-0.382007 -1.406749,-0.990826 -1.952907,-1.42417 -0.08069,-0.06402 -1.093125,-0.933389 -1.189988,-1.016445 -0.874472,-0.776392 -1.73553,-1.56879 -2.598835,-2.357876 0,0 -1.520581,-0.620605 -1.520581,-0.620605 z" />
  <path
     style="fill:#000000;fill-opacity:1;fill-rule:nonzero;stroke:none"
     id="path4026"
     d="m 14.37254,25.868045 c -0.332454,0.366584 -0.65015,0.74548 -0.995091,1.100086 -0.340876,0.35108 -0.668356,0.716678 -0.959196,1.113192 -0.288803,0.437489 -0.600331,0.85705 -0.889788,1.294039 -0.307336,0.461432 -0.66065,0.886106 -1.003477,1.318992 -0.302961,0.38335 -0.577921,0.787292 -0.842497,1.199465 -0.239141,0.367519 -0.478126,0.735131 -0.732798,1.091448 -0.253242,0.368675 -0.521418,0.725967 -0.780444,1.09023 -0.264186,0.409816 -0.595663,0.752893 -0.952879,1.074835 -0.374934,0.339588 -0.767756,0.656835 -1.145796,0.992769 -0.05749,0.05397 -0.114979,0.107943 -0.172468,0.161915 0,0 -1.491709,0.632356 -1.491709,0.632356 l 0,0 c 0.0567,-0.05632 0.113408,-0.112624 0.170111,-0.168935 0.381624,-0.334791 0.769367,-0.661308 1.151182,-0.995242 0.358101,-0.308065 0.695261,-0.633693 0.959843,-1.033452 0.249081,-0.372669 0.533524,-0.719397 0.778234,-1.095521 0.265402,-0.345372 0.49054,-0.721091 0.738462,-1.079318 0.257136,-0.423616 0.543245,-0.826536 0.842586,-1.219138 0.338142,-0.435394 0.699944,-0.851001 1.010842,-1.308483 0.106316,-0.157453 0.202082,-0.32235 0.309056,-0.479326 0.186906,-0.274271 0.408694,-0.524563 0.572142,-0.81616 0.282884,-0.409808 0.610674,-0.780379 0.95119,-1.139687 0.34747,-0.340377 0.670401,-0.702996 0.971773,-1.087486 0,0 1.510722,-0.646579 1.510722,-0.646579 z" />
  <path
     style="fill:#000000;fill-opacity:1;fill-rule:nonzero;stroke:none"
     id="path4026-7"
     d="m 19.452331,27.989945 c -0.457675,0.513924 -0.895032,1.045111 -1.369896,1.542243 -0.469269,0.492189 -0.920096,1.004732 -1.320484,1.560616 -0.397582,0.61333 -0.82645,1.201524 -1.224931,1.814151 -0.423097,0.646895 -0.909489,1.242258 -1.381443,1.849135 -0.417073,0.537429 -0.795598,1.103727 -1.159829,1.681564 -0.329215,0.515236 -0.658214,1.030603 -1.00881,1.530134 -0.348627,0.516856 -0.717813,1.017756 -1.074403,1.528423 -0.363693,0.574535 -0.820022,1.055503 -1.311786,1.506848 -0.516156,0.476077 -1.056935,0.920833 -1.577366,1.391788 -0.07914,0.07567 -0.158287,0.151331 -0.237431,0.226997 0,0 -2.053568,0.886519 -2.053568,0.886519 l 0,0 c 0.07806,-0.07895 0.156122,-0.157893 0.234184,-0.236837 0.525364,-0.469354 1.059153,-0.92711 1.58478,-1.395262 0.492983,-0.431884 0.957137,-0.888389 1.321375,-1.448824 0.342898,-0.522453 0.734479,-1.008544 1.07136,-1.535846 0.365367,-0.484184 0.675304,-1.010916 1.016608,-1.513126 0.353987,-0.593879 0.747862,-1.158745 1.15995,-1.709145 0.465506,-0.610391 0.963583,-1.193044 1.391582,-1.8344 0.146361,-0.220738 0.278199,-0.451913 0.425464,-0.671982 0.257305,-0.384508 0.562631,-0.7354 0.787642,-1.144199 0.389434,-0.574521 0.840689,-1.094035 1.309462,-1.59776 0.478346,-0.477185 0.922912,-0.985551 1.337796,-1.524578 0,0 2.079744,-0.906459 2.079744,-0.906459 z" />
  <path
     style="fill:#000000;fill-opacity:1;fill-rule:nonzero;stroke:none"
     id="path4024-0"
     d="m 33.230855,25.254533 c 0.933512,0.756612 1.809695,1.587992 2.709109,2.387677 1.009715,0.937083 2.132493,1.718707 3.253095,2.503895 1.427282,1.000079 1.17588,0.823215 2.626936,1.830982 1.276791,0.906714 2.546458,1.828613 3.767854,2.814387 0.981121,0.791853 1.916633,1.641672 2.854348,2.486929 0.851207,0.77452 1.682614,1.580332 2.335372,2.543449 0.25592,0.418625 0.401278,0.89626 0.511643,1.374796 0.0587,0.430389 0.145276,0.848633 0.286771,1.257843 0.105023,0.259343 0.13932,0.543077 0.249056,0.80055 0.06688,0.156898 0.126654,0.240423 0.216089,0.384056 0.261897,0.396718 0.609933,0.705529 0.967906,1.004386 0.370857,0.314957 0.737775,0.633769 1.118766,0.93581 0.360739,0.29008 0.729991,0.564596 1.107406,0.830869 0.238482,0.164048 0.120259,0.08161 0.354698,0.247273 0,0 1.503506,0.613049 1.503506,0.613049 l 0,0 c -0.230467,-0.17507 -0.111872,-0.09243 -0.355822,-0.247853 -0.177793,-0.134891 -0.36611,-0.248647 -0.545794,-0.38051 -0.434701,-0.319011 0.08183,0.05261 -0.362477,-0.300619 -0.06618,-0.05262 -0.137449,-0.09802 -0.206173,-0.147036 -0.384074,-0.295762 -0.75068,-0.61235 -1.118416,-0.928714 -0.348244,-0.298732 -0.713524,-0.573308 -0.982636,-0.957537 -0.04226,-0.06256 -0.192649,-0.280977 -0.229124,-0.351222 -0.12933,-0.249058 -0.148298,-0.5357 -0.248636,-0.795862 -0.06717,-0.18199 -0.147651,-0.372868 -0.191815,-0.562561 -0.05159,-0.22157 -0.06251,-0.45484 -0.108649,-0.677679 -0.103598,-0.500266 -0.253832,-0.998698 -0.504999,-1.44201 -0.67629,-1.009716 -1.558097,-1.836593 -2.452817,-2.636959 -0.963749,-0.855868 -1.923754,-1.71859 -2.925588,-2.527156 -1.22523,-0.988858 -2.495489,-1.918311 -3.777398,-2.826374 -1.235668,-0.860435 -1.377706,-0.955387 -2.5899,-1.814764 -0.538842,-0.382005 -1.40675,-0.990824 -1.952906,-1.424168 -0.08069,-0.06401 -1.093127,-0.93339 -1.189987,-1.016447 -0.874475,-0.776392 -1.735531,-1.568789 -2.598839,-2.357873 0,0 -1.520579,-0.620607 -1.520579,-0.620607 z" />
  <path
     style="fill:#000000;fill-opacity:1;fill-rule:nonzero;stroke:none"
     id="path4177"
     d="m 48.069584,26.100859 c -0.27851,0.377444 -0.553954,0.75666 -0.796817,1.159933 -0.253024,0.350949 -0.466425,0.730029 -0.723913,1.077368 -0.25337,0.333518 -0.427672,0.718994 -0.643273,1.077289 -0.234893,0.385366 -0.47518,0.765992 -0.706385,1.153863 -0.225754,0.369486 -0.4199,0.753657 -0.590577,1.153301 -0.149076,0.440777 -0.299731,0.880914 -0.444985,1.323072 -0.145562,0.446933 -0.247143,0.905856 -0.339972,1.366926 -0.072,0.458263 -0.124373,0.918689 -0.230286,1.370431 -0.08871,0.470748 -0.31718,0.887968 -0.555361,1.292679 -0.285412,0.432696 -0.583754,0.855182 -0.874489,1.284175 -0.310168,0.494318 -0.652601,0.965953 -0.957782,1.463418 -0.273988,0.421725 -0.565959,0.829888 -0.891288,1.210715 -0.314836,0.414483 -0.710814,0.742352 -1.116397,1.055783 -0.423405,0.287888 -0.83984,0.584479 -1.236153,0.911357 -0.41245,0.357495 -0.860951,0.665056 -1.284539,1.007646 -0.276885,0.252014 -0.140394,0.122822 -0.409371,0.387694 0,0 -0.395497,0.168253 -0.395497,0.168253 l 0,0 c 0.268076,-0.266957 0.132138,-0.136433 0.407734,-0.391665 0.421932,-0.344572 0.871228,-0.6501 1.283933,-1.006916 0.394581,-0.329283 0.809326,-0.628655 1.235311,-0.912772 0.406063,-0.310424 0.80557,-0.633641 1.119576,-1.047294 0.326724,-0.378291 0.618281,-0.784847 0.894115,-1.204123 0.303856,-0.49909 0.650157,-0.968435 0.957396,-1.465571 0.290753,-0.428122 0.58553,-0.851949 0.874619,-1.281157 0.237424,-0.400783 0.470795,-0.812969 0.560189,-1.279956 0.108485,-0.450753 0.161181,-0.910671 0.230899,-1.368921 0.09206,-0.462747 0.193438,-0.923204 0.337959,-1.372013 0.145558,-0.442841 0.297189,-0.883309 0.442767,-1.326158 0.168484,-0.402368 0.361837,-0.788342 0.588161,-1.159175 0.155345,-0.256842 0.08026,-0.126038 0.225115,-0.392514 0.153439,-0.258515 0.34544,-0.491714 0.481281,-0.761653 0.219506,-0.356434 0.388426,-0.745478 0.640333,-1.080896 0.263718,-0.342391 0.469184,-0.727303 0.728007,-1.073915 0.239725,-0.403126 0.51247,-0.78192 0.789435,-1.158253 0,0 0.400255,-0.180951 0.400255,-0.180951 z" />
  <path
     style="fill:#000000;fill-opacity:1;fill-rule:nonzero;stroke:none"
     id="path4179"
     d="m 54.250992,26.165237 c -0.05646,0.02289 -0.114344,0.04233 -0.169385,0.06866 -0.05195,0.02485 -0.898129,0.493601 -0.406962,0.227578 0.14528,-0.07869 0.277226,-0.188431 0.432965,-0.241638 0.07936,-0.02711 -0.131946,0.1061 -0.196572,0.160874 -0.06476,0.05489 -0.127677,0.112032 -0.191518,0.168049 -0.346397,0.326891 -0.624989,0.72317 -0.880924,1.127278 -0.274942,0.375057 -0.502908,0.781776 -0.731823,1.187535 -0.215563,0.393319 -0.392664,0.805955 -0.594463,1.206512 -0.179313,0.393091 -0.349465,0.788673 -0.467184,1.206407 -0.11286,0.365532 -0.271804,0.710925 -0.409583,1.066006 -0.142559,0.413521 -0.312525,0.815607 -0.490054,1.214104 -0.189255,0.432618 -0.387484,0.860838 -0.580747,1.29169 -0.18988,0.444795 -0.405269,0.874751 -0.636686,1.297461 -0.188454,0.410928 -0.495645,0.73701 -0.773865,1.081974 -0.313351,0.341695 -0.56116,0.734519 -0.805359,1.129152 -0.236375,0.382021 -0.512131,0.735125 -0.744843,1.119688 -0.262022,0.394345 -0.437705,0.838821 -0.665537,1.253149 -0.22574,0.428355 -0.438892,0.862248 -0.704054,1.26652 -0.284622,0.423916 -0.622793,0.806014 -0.953848,1.191257 -0.299399,0.385031 -0.663935,0.704203 -1.043293,1.001204 -0.315327,0.279388 -2.017331,1.226871 -0.781508,0.512072 0,0 -0.702018,0.281147 -0.702018,0.281147 l 0,0 c 0.279487,-0.169919 0.558943,-0.339898 0.838462,-0.509758 0.147148,-0.08942 -0.293393,0.180442 -0.441344,0.268437 -0.06659,0.03961 0.133211,-0.07939 0.197253,-0.123265 0.06492,-0.04447 0.126207,-0.09437 0.18931,-0.141558 0.383963,-0.287191 0.750474,-0.605769 1.0505,-0.987253 0.333485,-0.380663 0.667565,-0.764698 0.957355,-1.182187 0.272074,-0.398165 0.482516,-0.832178 0.705721,-1.260585 0.235631,-0.40984 0.401059,-0.859673 0.662995,-1.254181 0.228371,-0.388836 0.505136,-0.741215 0.745405,-1.121723 0.247786,-0.393229 0.482088,-0.798468 0.801313,-1.137229 0.273221,-0.345975 0.590916,-0.661826 0.779947,-1.069745 0.229484,-0.422181 0.453591,-0.845623 0.638781,-1.29165 0.193174,-0.431281 0.392587,-0.85888 0.581476,-1.291907 0.177191,-0.395982 0.348493,-0.795107 0.487293,-1.207525 0.06211,-0.170112 0.1471,-0.326785 0.212373,-0.494563 0.07244,-0.186184 0.116626,-0.385551 0.203716,-0.566391 0.112628,-0.423263 0.282091,-0.822072 0.459382,-1.220138 0.201646,-0.402027 0.385671,-0.81173 0.59456,-1.210326 0.225678,-0.408597 0.454291,-0.817216 0.731328,-1.191632 0.253746,-0.410389 0.532857,-0.810839 0.873953,-1.148645 0.02382,-0.02119 0.358521,-0.320263 0.384673,-0.337687 0.456629,-0.304208 0.934749,-0.613562 1.443623,-0.823168 0,0 -0.600814,0.485996 -0.600814,0.485996 z" />
  <path
     style="fill:#000000;fill-opacity:1;fill-rule:nonzero;stroke:none"
     id="path4181"
     d="m 42.910014,25.912419 c -0.309267,0.30173 -0.636138,0.582994 -0.961816,0.86551 -0.436797,0.376248 -0.83937,0.791663 -1.257526,1.189157 -0.430743,0.407442 -0.871101,0.803905 -1.292989,1.221176 -0.377956,0.385981 -0.727042,0.801378 -1.080737,1.211042 -0.374618,0.409399 -0.735076,0.832386 -1.078058,1.27048 -0.311356,0.449993 -0.624351,0.896754 -0.963668,1.324868 -0.313928,0.366964 -0.63455,0.7287 -0.987401,1.056181 -0.347155,0.327008 -0.708507,0.638924 -1.079729,0.936423 -0.469378,0.361943 -0.926563,0.739742 -1.389165,1.110723 -0.445468,0.353447 -0.892606,0.70507 -1.345065,1.048988 -0.362368,0.296651 -0.739188,0.573993 -1.103315,0.868246 -0.366247,0.275439 -0.707848,0.578903 -1.042906,0.892833 -0.278932,0.284807 -0.569658,0.552943 -0.818917,0.866977 -0.242339,0.285207 -0.470665,0.582709 -0.697318,0.881238 -0.231252,0.281434 -0.467387,0.555641 -0.723994,0.812595 -0.271358,0.241598 -0.51385,0.514462 -0.75504,0.78734 0,0 -0.694359,0.301412 -0.694359,0.301412 l 0,0 c 0.23821,-0.274903 0.478181,-0.551038 0.75038,-0.790776 0.254752,-0.256633 0.494562,-0.52333 0.726955,-0.801623 0.221113,-0.303592 0.456179,-0.59762 0.698659,-0.88329 0.242365,-0.324127 0.536609,-0.590499 0.814988,-0.879583 0.214615,-0.195367 0.108407,-0.09306 0.318087,-0.307512 0.229705,-0.211433 0.486051,-0.389739 0.724391,-0.590036 0.360764,-0.300528 0.744766,-0.570427 1.104607,-0.872162 0.455851,-0.34134 0.901813,-0.696908 1.350012,-1.048765 0.462628,-0.36762 0.915064,-0.748328 1.383251,-1.108571 0.373775,-0.292982 0.733998,-0.606016 1.081536,-0.931399 0.357606,-0.320587 0.674881,-0.683529 0.99303,-1.045082 0.340624,-0.428553 0.663284,-0.869176 0.96799,-1.325912 0.339367,-0.439765 0.696392,-0.864987 1.07219,-1.2718 0.411161,-0.486836 -0.104548,0.11611 0.338449,-0.37641 0.250266,-0.278243 0.464457,-0.590971 0.743211,-0.841922 0.420558,-0.419715 0.861925,-0.815833 1.293419,-1.223465 0.419827,-0.394015 0.81797,-0.812605 1.252191,-1.190339 0.321461,-0.280241 0.646255,-0.556175 0.952153,-0.854162 0,0 0.706504,-0.30238 0.706504,-0.30238 z" />
  <path
     style="fill:#000000;fill-opacity:1;fill-rule:nonzero;stroke:none"
     id="path4183"
     d="m 36.846349,25.702129 c -0.185085,0.41502 -0.396589,0.8149 -0.632642,1.201188 -0.261446,0.404396 -0.631007,0.710369 -1.003824,0.998855 -0.36332,0.318029 -0.751562,0.602392 -1.129615,0.900884 -0.357514,0.304794 -0.722147,0.600465 -1.075562,0.910487 -0.393694,0.343276 -0.779306,0.695934 -1.175755,1.03597 -0.409952,0.375109 -0.849185,0.712446 -1.280093,1.060515 -0.399423,0.307502 -0.783387,0.63519 -1.173471,0.955048 -0.425966,0.360239 -0.855484,0.715852 -1.285013,1.071548 -0.557615,0.44512 -1.098031,0.912821 -1.656555,1.356647 -0.452572,0.358914 -0.883127,0.742556 -1.299058,1.145436 -0.06119,0.06313 -0.12237,0.126255 -0.183555,0.189383 0,0 -0.692983,0.296901 -0.692983,0.296901 l 0,0 c 0.06105,-0.0641 0.122101,-0.12821 0.183153,-0.192313 0.418675,-0.403829 0.844936,-0.796305 1.301605,-1.154803 0.560398,-0.439308 1.097611,-0.909197 1.654263,-1.353555 0.426826,-0.357133 0.858744,-0.707711 1.280979,-1.070705 0.392002,-0.317993 0.77226,-0.651074 1.174452,-0.955497 0.427891,-0.351623 0.874234,-0.679807 1.281031,-1.058779 0.395788,-0.339928 0.782947,-0.689714 1.174691,-1.034323 0.351477,-0.312895 0.717731,-0.606711 1.073215,-0.914168 0.378363,-0.298026 0.768057,-0.580473 1.128902,-0.901583 0.371371,-0.284092 0.745512,-0.578538 1.014636,-0.972789 0.236053,-0.381562 0.458178,-0.772638 0.623775,-1.193119 0,0 0.697424,-0.321228 0.697424,-0.321228 z" />
  <path
     style="fill:#000000;fill-opacity:1;fill-rule:nonzero;stroke:none"
     id="path4185"
     d="m 22.935191,32.77504 c -0.204616,0.415821 -0.444431,0.811891 -0.6662,1.218108 -0.235514,0.448689 -0.52334,0.8646 -0.779556,1.300709 -0.253975,0.408912 -0.54703,0.78929 -0.802919,1.196581 -0.247383,0.37823 -0.483077,0.763861 -0.728167,1.143921 -0.244623,0.406812 -0.532847,0.782845 -0.803113,1.171189 -0.272172,0.386161 -0.576379,0.746174 -0.883794,1.102441 -0.366612,0.420635 -0.695475,0.873018 -1.022832,1.32621 -0.408059,0.524372 -0.794437,1.066614 -1.200314,1.592603 -0.488756,0.579818 -1.033668,1.107169 -1.560726,1.649778 -0.384811,0.38028 -0.737025,0.785941 -1.061,1.221869 -0.278516,0.376472 -0.536683,0.767528 -0.790489,1.162041 0,0 -0.685566,0.310161 -0.685566,0.310161 l 0,0 c 0.252913,-0.395371 0.509622,-0.787581 0.786125,-1.165814 0.324795,-0.440055 0.671389,-0.854665 1.062755,-1.234121 0.529785,-0.538998 1.071795,-1.068933 1.566043,-1.642561 0.407551,-0.522128 0.786629,-1.068047 1.197092,-1.588098 0.325595,-0.454529 0.652495,-0.908362 1.016755,-1.331107 0.306889,-0.354185 0.609796,-0.712484 0.885127,-1.093615 0.265695,-0.391001 0.561689,-0.760933 0.803943,-1.168828 0.243405,-0.381093 0.482046,-0.764563 0.728722,-1.142878 0.251749,-0.410437 0.545643,-0.789849 0.805135,-1.195275 0.254057,-0.437407 0.542477,-0.852447 0.781207,-1.29883 0.21881,-0.40382 0.461529,-0.795832 0.654348,-1.213257 0,0 0.697424,-0.321227 0.697424,-0.321227 z" />
  <path
     style="fill:#000000;fill-opacity:1;fill-rule:nonzero;stroke:none"
     id="path4201"
     d="m 43.298019,25.56254 c 0.109687,0.07045 0.211845,0.153231 0.315543,0.232931 0.18171,0.135595 0.35599,0.281577 0.527106,0.431071 0.217867,0.189086 0.428253,0.387258 0.63466,0.589589 0.239811,0.232607 0.475731,0.469431 0.713881,0.703856 0.27394,0.267172 0.551821,0.529898 0.831181,0.791002 0.305177,0.28136 0.611939,0.560806 0.920723,0.837933 0.327437,0.294395 0.660858,0.581473 0.999613,0.861848 0.353667,0.288831 0.701691,0.584821 1.057803,0.870489 0.383791,0.299406 0.765609,0.601495 1.148273,0.902442 0.393353,0.309504 0.786443,0.619393 1.181382,0.926741 0.39326,0.30215 0.784444,0.607179 1.174574,0.913633 0.383902,0.304586 0.772878,0.602416 1.156011,0.908019 0.37166,0.285844 0.739594,0.576555 1.095815,0.882742 0.347555,0.299595 0.676918,0.61918 0.983406,0.963168 0.294006,0.333184 0.551304,0.697311 0.788025,1.075326 0.228584,0.368327 0.406843,0.76516 0.577713,1.164365 0.160876,0.394836 0.329241,0.786529 0.512742,1.170721 0.19257,0.391938 0.427594,0.758788 0.663804,1.123513 0.245,0.377484 0.511822,0.739511 0.799144,1.08353 0.273925,0.330657 0.593544,0.612987 0.930755,0.87163 0.321577,0.244186 0.679323,0.426488 1.045985,0.585244 0.347458,0.151527 0.714666,0.239918 1.087026,0.293238 0,0 -0.619086,0.450573 -0.619086,0.450573 l 0,0 c -0.375851,-0.06088 -0.746187,-0.154066 -1.096601,-0.310528 -0.370286,-0.163803 -0.730935,-0.35206 -1.055267,-0.601418 -0.339917,-0.263851 -0.661878,-0.551503 -0.938535,-0.886726 -0.28821,-0.347302 -0.556913,-0.711691 -0.803893,-1.091531 -0.238161,-0.367473 -0.47493,-0.737234 -0.669318,-1.132023 -0.184251,-0.385054 -0.353573,-0.777499 -0.51426,-1.173637 -0.169229,-0.395469 -0.345039,-0.788974 -0.571489,-1.153866 -0.234362,-0.374339 -0.489378,-0.734714 -0.780953,-1.064222 -0.304656,-0.341073 -0.632203,-0.657754 -0.977551,-0.954725 -0.356008,-0.304884 -0.723429,-0.594645 -1.093577,-0.880895 -0.383185,-0.305189 -0.771491,-0.603552 -1.155402,-0.90778 -0.389973,-0.306441 -0.781227,-0.611148 -1.174175,-0.913505 -0.394843,-0.307711 -0.788103,-0.617594 -1.181754,-0.92693 -0.382973,-0.301173 -0.765442,-0.603021 -1.149777,-0.902329 -0.356585,-0.285869 -0.70452,-0.582836 -1.059344,-0.870994 -0.338919,-0.281716 -0.673163,-0.569264 -1.001418,-0.864176 -0.309677,-0.27708 -0.617087,-0.556788 -0.922852,-0.838469 -0.280011,-0.261514 -0.558764,-0.524413 -0.833604,-0.79173 -0.238813,-0.233884 -0.475184,-0.47042 -0.715731,-0.702405 -0.206314,-0.200502 -0.415874,-0.397698 -0.633808,-0.584679 -0.171421,-0.147377 -0.345701,-0.291489 -0.527802,-0.424641 -0.102838,-0.07717 -0.20334,-0.15936 -0.315186,-0.222352 0,0 0.646218,-0.434043 0.646218,-0.434043 z" />
  <path
     style="fill:#000000;fill-opacity:1;fill-rule:nonzero;stroke:none"
     id="path4205"
     d="m 6.999856,34.236333 c 0.569656,0.11533 1.141758,0.18154 1.692842,0.376556 0.231331,0.104524 0.413458,0.279989 0.609982,0.436514 0.230744,0.183781 0.306722,0.219177 0.474273,0.474169 0.238646,0.305596 0.408124,0.655679 0.580689,1.003508 0.262391,0.505564 0.546333,0.999303 0.837952,1.487734 0.285713,0.428381 0.642704,0.794399 1.035909,1.116004 0.05509,0.03588 0.112875,0.06768 0.165262,0.107647 0.308628,0.235461 -0.01892,0.02747 0.284254,0.231035 0.167854,0.112706 0.349618,0.201592 0.528487,0.293401 0.41943,0.166197 0.877208,0.212491 1.322313,0.256265 0.441371,0.08161 0.887176,0.120941 1.330396,0.188734 0.440584,0.120801 0.878053,0.249132 1.32524,0.344558 0.442613,0.161759 0.660481,0.389992 0.853455,0.827838 0.204868,0.315104 0.247096,0.68759 0.354939,1.039162 0,0 -0.661905,0.375548 -0.661905,0.375548 l 0,0 c -0.108518,-0.348402 -0.143982,-0.719635 -0.349412,-1.031914 -0.18155,-0.414851 -0.394478,-0.622523 -0.815509,-0.766379 -0.445051,-0.09915 -0.880952,-0.23032 -1.32279,-0.340506 -0.442235,-0.06743 -0.887355,-0.107431 -1.328148,-0.185909 -0.451705,-0.0491 -0.916176,-0.09611 -1.338109,-0.279115 -0.182885,-0.09363 -0.368445,-0.184359 -0.538494,-0.302062 -0.280912,-0.19444 -0.0082,-0.02021 -0.280333,-0.22865 -0.05428,-0.04158 -0.11296,-0.07665 -0.16944,-0.114983 C 11.199732,39.209853 10.836532,38.840822 10.5496,38.403069 10.253969,37.914816 9.974037,37.416715 9.704951,36.912748 9.527992,36.570753 9.358425,36.224576 9.125285,35.918743 8.97488,35.688069 8.877324,35.628988 8.666015,35.461266 8.4759,35.310365 8.29659,35.145385 8.072062,35.047641 7.522302,34.858768 6.951027,34.787155 6.381219,34.688715 c 0,0 0.618637,-0.452382 0.618637,-0.452382 z" />
  <path
     style="fill:#000000;fill-opacity:1;fill-rule:nonzero;stroke:none"
     id="path4209"
     d="m 37.961574,10.12828 c 0.129732,-0.103254 -0.726021,0.347965 -0.543895,0.262366 0.128973,-0.06062 0.237535,-0.202182 0.379179,-0.198499 0.09796,0.0025 -0.150664,0.130061 -0.218959,0.202665 -0.118603,0.126084 -0.242669,0.309997 -0.343105,0.45073 -0.228551,0.437327 -0.413809,0.892579 -0.660069,1.321012 -0.226454,0.400651 -0.323352,0.850985 -0.362094,1.308212 0.0081,0.460531 -0.05097,0.916473 -0.08478,1.374696 -0.07525,0.452909 -0.119607,0.907736 -0.13182,1.366867 0.0641,0.447338 0.232387,0.796731 0.556716,1.100122 0.211674,0.193143 0.100342,0.107213 0.332969,0.259205 0,0 -0.635099,0.421234 -0.635099,0.421234 l 0,0 c -0.23759,-0.16391 -0.124371,-0.07376 -0.339445,-0.270722 -0.333868,-0.326684 -0.515431,-0.687067 -0.587486,-1.15807 0.01024,-0.46018 0.04813,-0.917255 0.130221,-1.370307 0.0322,-0.458612 0.09716,-0.914308 0.08461,-1.375211 0.03392,-0.46655 0.125187,-0.927953 0.347792,-1.34103 0.117432,-0.19735 0.238694,-0.403088 0.337561,-0.611057 0.112413,-0.236462 0.178892,-0.497297 0.323921,-0.717858 0.08255,-0.118636 0.243452,-0.357094 0.33883,-0.465184 0.442174,-0.501108 1.079663,-0.7686206 1.665502,-1.0472804 0,0 -0.590561,0.4881094 -0.590561,0.4881094 z" />
  <path
     style="fill:#000000;fill-opacity:1;fill-rule:nonzero;stroke:none"
     id="path4211"
     d="m 38.156098,12.866761 c -0.02938,0.08162 -0.05472,0.164923 -0.08817,0.24486 -0.122314,0.292374 -0.114189,0.193647 -0.21268,0.485292 -0.07371,0.218256 -0.09696,0.447922 -0.153967,0.670869 -0.140801,0.405365 -0.163095,0.830367 -0.167286,1.256345 -0.01392,0.488238 0.09514,0.886653 0.327378,1.306985 0.0464,0.05817 0.09278,0.116337 0.139175,0.174505 0,0 -0.646169,0.400003 -0.646169,0.400003 l 0,0 c -0.04854,-0.06185 -0.09709,-0.123704 -0.145641,-0.185555 -0.23731,-0.428316 -0.357881,-0.844427 -0.346709,-1.342764 0.0015,-0.431026 0.01414,-0.864335 0.157646,-1.274787 0.06595,-0.225543 0.08251,-0.456004 0.15381,-0.680024 0.132575,-0.416542 0.04544,-0.07364 0.214223,-0.482192 0.03285,-0.07952 0.05265,-0.164129 0.07898,-0.246193 0,0 0.689409,-0.327344 0.689409,-0.327344 z" />
</svg>
