<?xml version="1.0" encoding="UTF-8" standalone="no"?>
<!-- Created with Inkscape (http://www.inkscape.org/) -->

<svg
   xmlns:dc="http://purl.org/dc/elements/1.1/"
   xmlns:cc="http://creativecommons.org/ns#"
   xmlns:rdf="http://www.w3.org/1999/02/22-rdf-syntax-ns#"
   xmlns:svg="http://www.w3.org/2000/svg"
   xmlns="http://www.w3.org/2000/svg"
   xmlns:sodipodi="http://sodipodi.sourceforge.net/DTD/sodipodi-0.dtd"
   xmlns:inkscape="http://www.inkscape.org/namespaces/inkscape"
   id="svg2"
   version="1.1"
   inkscape:version="0.47 r22583"
   width="70"
   height="70"
   sodipodi:docname="yatchting2.png">
  <metadata
     id="metadata8">
    <rdf:RDF>
      <cc:Work
         rdf:about="">
        <dc:format>image/svg+xml</dc:format>
        <dc:type
           rdf:resource="http://purl.org/dc/dcmitype/StillImage" />
        <dc:title></dc:title>
      </cc:Work>
    </rdf:RDF>
  </metadata>
  <defs
     id="defs6">
    <inkscape:perspective
       sodipodi:type="inkscape:persp3d"
       inkscape:vp_x="0 : 0.5 : 1"
       inkscape:vp_y="0 : 1000 : 0"
       inkscape:vp_z="1 : 0.5 : 1"
       inkscape:persp3d-origin="0.5 : 0.33333333 : 1"
       id="perspective10" />
  </defs>
  <sodipodi:namedview
     pagecolor="#ffffff"
     bordercolor="#666666"
     borderopacity="1"
     objecttolerance="10"
     gridtolerance="10"
     guidetolerance="10"
     inkscape:pageopacity="0"
     inkscape:pageshadow="2"
     inkscape:window-width="1366"
     inkscape:window-height="694"
     id="namedview4"
     showgrid="false"
     inkscape:zoom="3.3714286"
     inkscape:cx="35"
     inkscape:cy="35"
     inkscape:window-x="0"
     inkscape:window-y="25"
     inkscape:window-maximized="1"
     inkscape:current-layer="svg2" />
  <path
     style="fill:#000000"
     d="m 14.26695,61.843629 c -2.70555,-1.575838 -2.072153,-3.023806 0.758543,-1.734055 1.951905,0.889348 3.075084,0.839766 5.061712,-0.223445 2.017691,-1.079836 2.956842,-1.114317 4.477888,-0.164408 2.454721,1.532998 4.46682,1.521865 6.965426,-0.03854 1.581072,-0.987396 2.39179,-0.987396 3.972862,0 2.498606,1.560405 4.510705,1.571538 6.965426,0.03854 1.521046,-0.949909 2.460197,-0.915428 4.477888,0.164408 2.005984,1.07357 3.100873,1.116863 5.108765,0.202007 3.064209,-1.396147 3.46149,-1.428941 3.46149,-0.285728 0,0.483273 -1.370277,1.446267 -3.045059,2.139984 -2.382684,0.98694 -3.614771,1.001727 -5.664121,0.06798 -2.028907,-0.924432 -3.268223,-0.924432 -5.5,0 -2.132058,0.883128 -3.5092,0.907069 -5.297855,0.0921 -1.747412,-0.796175 -3.280773,-0.800079 -5.535451,-0.01409 -2.305964,0.803864 -3.693818,0.779246 -5.326386,-0.09448 -1.603406,-0.858116 -2.96804,-0.892582 -4.984589,-0.125891 -3.35037,1.273809 -3.669945,1.272487 -5.896539,-0.02438 z m 0,-5 c -2.543168,-1.481259 -2.222382,-3.24308 0.340728,-1.871345 1.560015,0.834895 2.829219,0.81303 5,-0.08614 2.2401,-0.92788 3.561562,-0.934872 5.745152,-0.0304 2.179421,0.902746 3.442148,0.898425 5.45494,-0.01866 2.028908,-0.924432 3.268224,-0.924432 5.5,0 2.241681,0.928535 3.473983,0.923115 5.553603,-0.02442 2.136338,-0.973385 3.170912,-0.951097 5.155577,0.111064 1.940707,1.038635 3.040992,1.074538 5.03851,0.164408 3.064209,-1.396147 3.46149,-1.428941 3.46149,-0.285728 0,0.483273 -1.370277,1.446267 -3.045059,2.139984 -2.382684,0.98694 -3.614771,1.001727 -5.664121,0.06798 -2.028907,-0.924432 -3.268223,-0.924432 -5.5,0 -2.132058,0.883128 -3.5092,0.907069 -5.297855,0.0921 -1.747412,-0.796175 -3.280773,-0.800079 -5.535451,-0.01409 -2.305964,0.803864 -3.693818,0.779246 -5.326386,-0.09448 -1.603406,-0.858116 -2.96804,-0.892582 -4.984589,-0.125891 -3.35037,1.273809 -3.669945,1.272487 -5.896539,-0.02438 z m -0.55,-5.119901 c -1.920409,-1.920409 -1.386523,-2.970192 0.890728,-1.751444 1.563593,0.83681 2.835602,0.810386 5.045059,-0.104801 2.29926,-0.952385 3.535063,-0.959125 5.573393,-0.0304 2.012792,0.917089 3.275519,0.92141 5.45494,0.01866 2.171697,-0.899546 3.500063,-0.899546 5.67176,0 2.189171,0.906784 3.445367,0.896959 5.508543,-0.04309 2.136338,-0.973374 3.170912,-0.951086 5.155577,0.111075 1.940707,1.038635 3.040992,1.074538 5.03851,0.164408 3.064209,-1.396147 3.46149,-1.428941 3.46149,-0.285728 0,0.483273 -1.37259,1.447225 -3.0502,2.142113 -2.466062,1.021477 -3.509742,1.017495 -5.4498,-0.02079 -1.95379,-1.045637 -2.97561,-1.045637 -5.5,0 -2.52439,1.045637 -3.54621,1.045637 -5.5,0 -1.95379,-1.045637 -2.97561,-1.045637 -5.5,0 -2.533459,1.049393 -3.546809,1.045316 -5.541656,-0.02229 -1.902003,-1.017925 -3.005769,-1.049316 -4.996854,-0.142118 -3.244254,1.478181 -4.756312,1.469586 -6.26149,-0.03559 z m 9.8,-4.8 c -1.055702,-0.682247 0.27719,-0.953092 4.5,-0.914402 4.26744,0.0391 5.42248,0.303141 4,0.914402 -2.727882,1.172211 -6.686133,1.172211 -8.5,0 z m 11.5,0 c -0.384235,-0.621706 1.390338,-0.973411 4.690983,-0.929715 3.888941,0.05148 4.774049,0.300169 3.309017,0.929715 -2.787289,1.197739 -7.259756,1.197739 -8,0 z m -8.070629,-4.11428 C 26.533459,42.141424 24.695864,41.904649 22.357927,42.218232 18.531181,42.731506 18.411958,42.650048 15.987573,37.865755 12.842631,31.65951 12.824238,26.224242 15.927453,20.100338 17.953118,16.10288 26.3384,6.9237288 27.964468,6.9237288 c 0.270714,0 -0.630638,1.654603 -2.003003,3.6768962 -3.25188,4.791913 -3.75751,7.066699 -3.270567,14.714 0.283231,4.448049 1.310886,8.169865 3.444361,12.474297 1.672381,3.374143 2.693975,6.134806 2.270208,6.134806 -0.423767,0 -1.080383,-0.501426 -1.459148,-1.11428 z m 3.588322,-19.13572 0.01769,-20.2499992 4.112897,7.0000002 c 8.980307,15.284152 18.851717,32.577839 18.851717,33.026253 0,0.26056 -5.175,0.473746 -11.5,0.473746 l -11.5,0 0.01769,-20.25 z"
     id="path2818" />
</svg>
