<?xml version="1.0" encoding="UTF-8" standalone="no"?>
<!DOCTYPE svg PUBLIC "-//W3C//DTD SVG 20010904//EN"
"http://www.w3.org/TR/2001/REC-SVG-20010904/DTD/svg10.dtd">
<!-- Created with Sodipodi ("http://www.sodipodi.com/") -->
<svg
   id="svg586"
   sodipodi:version="0.32"
   width="210mm"
   height="516.89pt"
   sodipodi:docbase="/root/"
   sodipodi:docname="/root/xfce4.svg"
   xmlns="http://www.w3.org/2000/svg"
   xmlns:sodipodi="http://sodipodi.sourceforge.net/DTD/sodipodi-0.dtd"
   xmlns:xlink="http://www.w3.org/1999/xlink">
  <defs
     id="defs588" />
  <sodipodi:namedview
     id="base" />
  <path
     style="font-size:12;fill-rule:evenodd;stroke:#000000;stroke-width:0.571119;stroke-dasharray:none;"
     d="M 473.073 374.573 C 468.908 379.496 469.864 398.086 470.055 397.884 C 473.636 394.065 474.438 372.944 473.073 374.573 z "
     id="path557"
     sodipodi:nodetypes="css"
     transform="matrix(2.188685,0.000000,0.000000,2.188684,-348.1093,-718.7853)" />
  <path
     style="font-size:12;fill-rule:evenodd;stroke:#000000;stroke-width:0.571119;stroke-dasharray:none;"
     d="M 488.076 377.154 C 487.665 375.6 475.702 393.214 476.426 399.846 C 476.658 401.233 488.992 380.542 488.076 377.154 z "
     id="path558"
     sodipodi:nodetypes="css"
     transform="matrix(2.188685,0.000000,0.000000,2.188684,-348.1093,-718.7853)" />
  <path
     style="font-size:12;fill-rule:evenodd;stroke:#000000;stroke-width:0.571119;stroke-dasharray:none;"
     d="M 239.876 529.154 L 259.362 554.504 L 280.401 529.154 L 296.439 544.674 L 272.986 568.99 L 297.128 594.512 L 280.056 611.067 L 257.638 583.303 L 235.219 611.24 L 219.527 594.857 L 244.532 570.197 L 222.286 544.847 L 239.876 529.154 z "
     id="path591"
     transform="matrix(2.188685,0.000000,0.000000,2.188684,-348.1093,-718.7853)" />
  <path
     style="font-size:12;fill-rule:evenodd;stroke:#000000;stroke-width:0.571119;stroke-dasharray:none;"
     d="M 308.165 533.293 C 308.165 533.293 352.139 531.568 352.139 531.741 C 352.139 531.913 352.484 550.365 352.484 550.365 L 331.618 550.538 L 331.446 564.334 L 350.932 563.471 L 351.105 580.716 L 331.446 581.234 L 331.101 608.825 L 307.993 608.998 C 307.993 608.998 307.82 533.293 308.165 533.293 z "
     id="path592"
     transform="matrix(2.188685,0.000000,0.000000,2.188684,-348.1093,-718.7853)" />
  <path
     style="font-size:12;fill-rule:evenodd;stroke:#000000;stroke-width:0.571119;stroke-dasharray:none;"
     d="M 436.811 533.12 L 481.303 531.396 L 481.303 549.331 L 460.437 549.675 L 460.264 562.437 L 478.199 561.23 L 478.199 578.992 L 460.264 579.337 L 460.437 591.236 L 482.683 591.58 L 482.683 609.515 L 436.984 609.17 L 436.811 533.12 z "
     id="path593"
     transform="matrix(2.188685,0.000000,0.000000,2.188684,-348.1093,-718.7853)" />
  <path
     style="font-size:12;fill-rule:evenodd;stroke:#000000;stroke-width:0.571119;stroke-dasharray:none;"
     d="M 416.635 531.741 C 418.015 538.294 419.394 544.847 420.774 551.4 C 407.573 555.846 387.097 557.412 386.174 576.714 C 388.602 595.624 412.706 589.674 423.016 590.546 C 423.188 596.812 423.361 603.077 423.533 609.343 C 377.399 615.411 363.156 592.471 362.378 584.331 C 357.829 547.671 396.426 536.157 416.635 531.741 z "
     id="path594"
     sodipodi:nodetypes="ccccccc"
     transform="matrix(2.188685,0.000000,0.000000,2.188684,-348.1093,-718.7853)" />
  <path
     style="font-size:12;fill-rule:evenodd;stroke:#000000;stroke-width:1pt;"
     d="M 623.253 418.695 C 611.891 416.432 577.507 437.384 580.002 439.494 C 583.53 442.477 628.652 419.877 623.253 418.695 z M 567.531 394.512 C 577.861 399.373 592.97 391.273 590.405 390.986 C 568.104 388.513 564.274 378.077 560.866 367.852 C 557.564 364.435 556.874 388.548 567.531 394.512 z M 596.498 368.057 C 596.498 374.556 591.659 380.347 585.445 380.347 C 579.231 380.347 573.981 374.556 573.981 368.057 C 573.981 361.557 579.026 356.282 585.239 356.282 C 591.453 356.282 596.498 361.557 596.498 368.057 z M 14.2006 245.058 C 17.4158 245.6 46.1422 257.185 55.2428 261.878 C 102.1 280.711 183.357 300.948 258.228 375.179 C 263.978 380.898 267.335 356.875 325.226 362.899 C 335.39 363.859 417.269 385.65 451.305 379.187 C 463.96 376.212 468.987 354.496 469.924 337.632 C 469.876 330.121 464.564 307.017 464.501 301.882 C 464.129 284.007 481.237 275.918 486.059 276.912 C 491.093 278.197 501.616 280.429 519.671 324.616 C 522.7 330.241 522.348 327.829 530.956 328.654 C 521.382 297.01 519.577 251.819 547.62 256.406 C 550.547 258.043 565.112 255.981 568.87 296.665 C 569.866 303.513 571.072 319.162 571.481 326.096 C 572.261 332.095 637.573 329.661 695.409 367.488 C 702.152 371.544 729.684 398.086 701.769 421.172 C 690.314 432.702 597.441 480.724 592.007 484.541 C 587.227 487.857 583.322 502.432 621.804 543.428 C 626.704 549.407 623.137 557.733 616.951 557.847 C 611.436 558.7 566.662 540.171 557.191 543.518 C 552.759 545.085 580.004 573.796 583.596 583.853 C 589.748 598.401 580.398 600.85 571.845 600.025 C 565.169 599.423 523.238 581.793 518.548 579.589 C 510.224 576.059 497.858 568.486 488.78 568 C 483.137 567.932 374.386 575.553 286.777 563.102 C 281.621 564.492 235.744 604.361 232.577 606 C 208.937 618.666 233.745 558.125 232.174 556.582 C 230.228 554.671 207.932 567.836 195.362 566.17 C 187.908 558.707 215.43 527.58 218.825 522.578 C 224.964 517.045 204.699 456.515 244.409 393.475 C 240.36 386.127 194.596 346.308 156.388 325.023 C 120.282 304.443 23.9884 257.98 21.6268 255.261 C 17.8382 252.565 8.5494 245.263 14.2006 245.058 z M 629.875 433.285 C 620.306 432.573 597.165 459.216 599.66 461.326 C 603.189 464.309 634.627 433.65 629.875 433.285 z "
     id="path602"
     transform="translate(6.724362,-195.0065)" />
</svg>
